<?xml version="1.0" encoding="utf-8"?>
<!-- Comprehensive City Scene - Combining existing SVG assets -->
<svg width="1200px" height="800px" viewBox="0 0 1200 800" version="1.1" xmlns="http://www.w3.org/2000/svg">
  <!-- Background Sky -->
  <rect width="1200" height="800" fill="#87CEEB"/>
  
  <!-- Background Mountains/Hills -->
  <path d="M0 400 Q200 350 400 380 Q600 320 800 360 Q1000 300 1200 340 L1200 800 L0 800 Z" fill="#A4A9AD"/>
  
  <!-- Ground/Street Base -->
  <rect x="0" y="650" width="1200" height="150" fill="#333E48"/>
  
  <!-- Street Lines -->
  <rect x="0" y="680" width="1200" height="4" fill="#FFB819"/>
  <rect x="50" y="690" width="80" height="4" fill="#FFFFFF"/>
  <rect x="180" y="690" width="80" height="4" fill="#FFFFFF"/>
  <rect x="310" y="690" width="80" height="4" fill="#FFFFFF"/>
  <rect x="440" y="690" width="80" height="4" fill="#FFFFFF"/>
  <rect x="570" y="690" width="80" height="4" fill="#FFFFFF"/>
  <rect x="700" y="690" width="80" height="4" fill="#FFFFFF"/>
  <rect x="830" y="690" width="80" height="4" fill="#FFFFFF"/>
  <rect x="960" y="690" width="80" height="4" fill="#FFFFFF"/>
  
  <!-- Background Buildings (Far) -->
  <g id="background-buildings" transform="translate(0, 0)">
    <!-- Skyscraper 1 -->
    <g transform="translate(50, 200) scale(0.3, 0.6)">
      <path d="M789.4 690.5c0-6.4-5.2-11.6-11.6-11.6H280.6c-6.4 0-11.6 5.2-11.6 11.6v236.3c0 6.4 5.2 11.6 11.6 11.6h497.2c6.4 0 11.6-5.2 11.6-11.6V690.5z" fill="#A4A9AD"/>
      <path d="M659.7 266.5c0-6.4-5.2-11.6-11.6-11.6H410.3c-6.4 0-11.6 5.2-11.6 11.6v252c0 6.4 5.2 11.6 11.6 11.6h237.8c6.4 0 11.6-5.2 11.6-11.6v-252z" fill="#D1D3D3"/>
      <path d="M704.4 916.6V526.9c0-6.4-5.2-11.6-11.6-11.6H365.6c-6.4 0-11.6 5.2-11.6 11.6v389.7h350.4z" fill="#333E48"/>
    </g>
    
    <!-- Building 2 -->
    <g transform="translate(200, 300) scale(0.25, 0.5)">
      <path d="M281.1 198.8h433V921h-433z" fill="#FF5959"/>
      <path d="M743.7 152.4c0-7.4-6-13.4-13.4-13.4H264.9c-7.4 0-13.4 6-13.4 13.4v51.7c0 7.4 6 13.4 13.4 13.4h465.4c7.4 0 13.4-6 13.4-13.4v-51.7z" fill="#333E48"/>
    </g>
    
    <!-- Skyscraper 2 -->
    <g transform="translate(900, 180) scale(0.35, 0.7)">
      <path d="M789.4 690.5c0-6.4-5.2-11.6-11.6-11.6H280.6c-6.4 0-11.6 5.2-11.6 11.6v236.3c0 6.4 5.2 11.6 11.6 11.6h497.2c6.4 0 11.6-5.2 11.6-11.6V690.5z" fill="#0071CE"/>
      <path d="M659.7 266.5c0-6.4-5.2-11.6-11.6-11.6H410.3c-6.4 0-11.6 5.2-11.6 11.6v252c0 6.4 5.2 11.6 11.6 11.6h237.8c6.4 0 11.6-5.2 11.6-11.6v-252z" fill="#00B3E3"/>
    </g>
  </g>
  
  <!-- Midground Buildings -->
  <g id="midground-buildings" transform="translate(0, 0)">
    <!-- Main Building Complex -->
    <g transform="translate(300, 350) scale(0.4, 0.6)">
      <path d="M281.1 198.8h433V921h-433z" fill="#D68231"/>
      <path d="M743.7 152.4c0-7.4-6-13.4-13.4-13.4H264.9c-7.4 0-13.4 6-13.4 13.4v51.7c0 7.4 6 13.4 13.4 13.4h465.4c7.4 0 13.4-6 13.4-13.4v-51.7z" fill="#333E48"/>
      <!-- Windows -->
      <path d="M631.3 490.8h82.8v39.8h-82.8zM281.1 360.1h82.8v39.8h-82.8zM584.6 723.4h82.8v39.8h-82.8zM322.5 612.6h82.8v39.8h-82.8z" fill="#FFB819"/>
    </g>
    
    <!-- Hospital -->
    <g transform="translate(600, 400) scale(0.3, 0.5)">
      <path d="M136.9 408.4v417.1h747.3V408.4L510.6 175.2z" fill="#FFFFFF"/>
      <path d="M510.6 362.1m-76 0a76 76 0 1 0 152 0 76 76 0 1 0-152 0Z" fill="#FF5959"/>
      <path d="M586.6 347h-60.9v-60.9h-30.2V347h-60.9v30.2h60.9v60.9h30.2v-60.9h60.9z" fill="#FFFFFF"/>
    </g>
    
    <!-- Factory -->
    <g transform="translate(750, 420) scale(0.25, 0.4)">
      <rect x="200" y="300" width="400" height="300" fill="#A4A9AD"/>
      <rect x="250" y="200" width="80" height="100" fill="#333E48"/>
      <rect x="370" y="150" width="80" height="150" fill="#333E48"/>
      <rect x="490" y="180" width="80" height="120" fill="#333E48"/>
      <!-- Smoke -->
      <circle cx="290" cy="180" r="15" fill="#D1D3D3"/>
      <circle cx="285" cy="160" r="12" fill="#D1D3D3"/>
      <circle cx="295" cy="140" r="10" fill="#D1D3D3"/>
    </g>
  </g>
  
  <!-- Trees and Nature -->
  <g id="nature-elements">
    <!-- Tree 1 -->
    <g transform="translate(100, 500) scale(0.15, 0.2)">
      <path d="M207.2 316a298.3 250.7 0 1 0 596.6 0 298.3 250.7 0 1 0-596.6 0 Z" fill="#00AD68"/>
      <path d="M760.5 568.6l-37-46.9-162.5 128V421.8H449.9v306.3L301.1 606.8l-37.8 46.3 186.6 152.2v128H561V725.9z" fill="#D68231"/>
    </g>
    
    <!-- Tree 2 -->
    <g transform="translate(180, 520) scale(0.12, 0.18)">
      <path d="M207.2 316a298.3 250.7 0 1 0 596.6 0 298.3 250.7 0 1 0-596.6 0 Z" fill="#218649"/>
      <path d="M760.5 568.6l-37-46.9-162.5 128V421.8H449.9v306.3L301.1 606.8l-37.8 46.3 186.6 152.2v128H561V725.9z" fill="#D68231"/>
    </g>
    
    <!-- Tree 3 -->
    <g transform="translate(1000, 510) scale(0.14, 0.19)">
      <path d="M207.2 316a298.3 250.7 0 1 0 596.6 0 298.3 250.7 0 1 0-596.6 0 Z" fill="#7CDFA8"/>
      <path d="M760.5 568.6l-37-46.9-162.5 128V421.8H449.9v306.3L301.1 606.8l-37.8 46.3 186.6 152.2v128H561V725.9z" fill="#D68231"/>
    </g>
  </g>
  
  <!-- Street Infrastructure -->
  <g id="street-infrastructure">
    <!-- Street Light 1 -->
    <g transform="translate(250, 550) scale(0.08, 0.12)">
      <path d="M481.7 374.7h61.9v531.7h-61.9z" fill="#333E48"/>
      <path d="M620.9 158.1H404.4l34.2 216.6h148.1z" fill="#F2D383"/>
      <path d="M620.9 171.7c0-59.8-48.5-108.3-108.3-108.3s-108.3 48.5-108.3 108.3h216.6z" fill="#A4A9AD"/>
    </g>
    
    <!-- Street Light 2 -->
    <g transform="translate(850, 550) scale(0.08, 0.12)">
      <path d="M481.7 374.7h61.9v531.7h-61.9z" fill="#333E48"/>
      <path d="M620.9 158.1H404.4l34.2 216.6h148.1z" fill="#F2D383"/>
      <path d="M620.9 171.7c0-59.8-48.5-108.3-108.3-108.3s-108.3 48.5-108.3 108.3h216.6z" fill="#A4A9AD"/>
    </g>
    
    <!-- Traffic Light -->
    <g transform="translate(400, 580) scale(0.06, 0.08)">
      <rect x="480" y="200" width="60" height="180" fill="#333E48"/>
      <circle cx="510" cy="240" r="20" fill="#FF5959"/>
      <circle cx="510" cy="280" r="20" fill="#FFB819"/>
      <circle cx="510" cy="320" r="20" fill="#00AD68"/>
      <rect x="500" y="380" width="20" height="200" fill="#A4A9AD"/>
    </g>
  </g>

  <!-- Vehicles and Transportation -->
  <g id="vehicles">
    <!-- Car 1 -->
    <g transform="translate(150, 620) scale(0.08, 0.06)">
      <path d="M839.9 390h29v91.6h-29z" fill="#333E48"/>
      <path d="M901.7 478H693.1l-20.3-119.7C669.7 340 652 325 633.4 325H179c-18.6 0-36.3 15-39.4 33.3L92.8 634.2c-3.1 18.3 9.5 33.3 28.1 33.3h780.8c18.6 0 33.8-15.2 33.8-33.8v-122c0-18.5-15.2-33.7-33.8-33.7z" fill="#0071CE"/>
      <path d="M284.8 667.5m-97.5 0a97.5 97.5 0 1 0 195 0 97.5 97.5 0 1 0-195 0Z" fill="#333E48"/>
      <path d="M713.8 667.5m-97.5 0a97.5 97.5 0 1 0 195 0 97.5 97.5 0 1 0-195 0Z" fill="#333E48"/>
    </g>

    <!-- Car 2 -->
    <g transform="translate(500, 625) scale(0.07, 0.05)">
      <path d="M901.7 478H693.1l-20.3-119.7C669.7 340 652 325 633.4 325H179c-18.6 0-36.3 15-39.4 33.3L92.8 634.2c-3.1 18.3 9.5 33.3 28.1 33.3h780.8c18.6 0 33.8-15.2 33.8-33.8v-122c0-18.5-15.2-33.7-33.8-33.7z" fill="#FF5959"/>
      <path d="M284.8 667.5m-97.5 0a97.5 97.5 0 1 0 195 0 97.5 97.5 0 1 0-195 0Z" fill="#333E48"/>
      <path d="M713.8 667.5m-97.5 0a97.5 97.5 0 1 0 195 0 97.5 97.5 0 1 0-195 0Z" fill="#333E48"/>
    </g>

    <!-- Bus -->
    <g transform="translate(700, 615) scale(0.1, 0.08)">
      <rect x="100" y="300" width="500" height="200" fill="#FFB819"/>
      <rect x="120" y="320" width="60" height="40" fill="#00B3E3"/>
      <rect x="200" y="320" width="60" height="40" fill="#00B3E3"/>
      <rect x="280" y="320" width="60" height="40" fill="#00B3E3"/>
      <rect x="360" y="320" width="60" height="40" fill="#00B3E3"/>
      <rect x="440" y="320" width="60" height="40" fill="#00B3E3"/>
      <rect x="520" y="320" width="60" height="40" fill="#00B3E3"/>
      <circle cx="200" cy="520" r="40" fill="#333E48"/>
      <circle cx="500" cy="520" r="40" fill="#333E48"/>
    </g>
  </g>

  <!-- Foreground Buildings and Structures -->
  <g id="foreground-buildings">
    <!-- Houses -->
    <g transform="translate(50, 480) scale(0.2, 0.25)">
      <path d="M358.1 394.7c0 11.1-9.1 20.1-20.1 20.1H194c-11.1 0-20.1-9.1-20.1-20.1v-208c0-11.1 9.1-20.1 20.1-20.1h144c11.1 0 20.1 9.1 20.1 20.1v208z" fill="#D68231"/>
      <path d="M136.9 408.4v417.1h747.3V408.4L510.6 175.2z" fill="#D1D3D3"/>
      <path d="M419.3 574.5h182.5v251H419.3z" fill="#D68231"/>
      <path d="M510.6 664.5m-35.7 0a35.7 35.7 0 1 0 71.4 0 35.7 35.7 0 1 0-71.4 0Z" fill="#FFFFFF"/>
    </g>

    <!-- Gas Station -->
    <g transform="translate(950, 520) scale(0.15, 0.2)">
      <rect x="200" y="400" width="300" height="200" fill="#FFFFFF"/>
      <rect x="150" y="350" width="400" height="50" fill="#FF5959"/>
      <rect x="250" y="450" width="50" height="100" fill="#0071CE"/>
      <rect x="350" y="450" width="50" height="100" fill="#00AD68"/>
      <circle cx="275" cy="580" r="15" fill="#333E48"/>
      <circle cx="375" cy="580" r="15" fill="#333E48"/>
    </g>

    <!-- Bank -->
    <g transform="translate(400, 450) scale(0.18, 0.3)">
      <rect x="200" y="300" width="400" height="300" fill="#A4A9AD"/>
      <rect x="220" y="250" width="360" height="50" fill="#333E48"/>
      <!-- Columns -->
      <rect x="240" y="320" width="30" height="200" fill="#FFFFFF"/>
      <rect x="290" y="320" width="30" height="200" fill="#FFFFFF"/>
      <rect x="340" y="320" width="30" height="200" fill="#FFFFFF"/>
      <rect x="390" y="320" width="30" height="200" fill="#FFFFFF"/>
      <rect x="440" y="320" width="30" height="200" fill="#FFFFFF"/>
      <rect x="490" y="320" width="30" height="200" fill="#FFFFFF"/>
      <rect x="540" y="320" width="30" height="200" fill="#FFFFFF"/>
    </g>
  </g>

  <!-- Small Details and Urban Furniture -->
  <g id="urban-details">
    <!-- Bench 1 -->
    <g transform="translate(300, 630) scale(0.05, 0.04)">
      <rect x="200" y="400" width="200" height="20" fill="#D68231"/>
      <rect x="220" y="420" width="20" height="60" fill="#A4A9AD"/>
      <rect x="360" y="420" width="20" height="60" fill="#A4A9AD"/>
    </g>

    <!-- Bench 2 -->
    <g transform="translate(800, 630) scale(0.05, 0.04)">
      <rect x="200" y="400" width="200" height="20" fill="#D68231"/>
      <rect x="220" y="420" width="20" height="60" fill="#A4A9AD"/>
      <rect x="360" y="420" width="20" height="60" fill="#A4A9AD"/>
    </g>

    <!-- Fire Hydrant -->
    <g transform="translate(600, 635) scale(0.04, 0.03)">
      <rect x="480" y="400" width="60" height="80" fill="#FF5959"/>
      <circle cx="510" cy="420" r="8" fill="#A4A9AD"/>
      <rect x="460" y="430" width="20" height="10" fill="#A4A9AD"/>
      <rect x="540" y="430" width="20" height="10" fill="#A4A9AD"/>
    </g>

    <!-- Trash Can -->
    <g transform="translate(450, 635) scale(0.04, 0.03)">
      <rect x="480" y="400" width="60" height="80" fill="#333E48"/>
      <rect x="470" y="390" width="80" height="10" fill="#A4A9AD"/>
    </g>
  </g>

  <!-- Clouds -->
  <g id="clouds">
    <g transform="translate(200, 80)">
      <circle cx="0" cy="0" r="25" fill="#FFFFFF" opacity="0.8"/>
      <circle cx="30" cy="0" r="35" fill="#FFFFFF" opacity="0.8"/>
      <circle cx="60" cy="0" r="25" fill="#FFFFFF" opacity="0.8"/>
      <circle cx="15" cy="-15" r="20" fill="#FFFFFF" opacity="0.8"/>
      <circle cx="45" cy="-15" r="20" fill="#FFFFFF" opacity="0.8"/>
    </g>

    <g transform="translate(700, 120)">
      <circle cx="0" cy="0" r="20" fill="#FFFFFF" opacity="0.7"/>
      <circle cx="25" cy="0" r="30" fill="#FFFFFF" opacity="0.7"/>
      <circle cx="50" cy="0" r="20" fill="#FFFFFF" opacity="0.7"/>
      <circle cx="12" cy="-12" r="15" fill="#FFFFFF" opacity="0.7"/>
      <circle cx="38" cy="-12" r="15" fill="#FFFFFF" opacity="0.7"/>
    </g>

    <g transform="translate(1000, 100)">
      <circle cx="0" cy="0" r="18" fill="#FFFFFF" opacity="0.6"/>
      <circle cx="22" cy="0" r="25" fill="#FFFFFF" opacity="0.6"/>
      <circle cx="44" cy="0" r="18" fill="#FFFFFF" opacity="0.6"/>
      <circle cx="11" cy="-10" r="12" fill="#FFFFFF" opacity="0.6"/>
      <circle cx="33" cy="-10" r="12" fill="#FFFFFF" opacity="0.6"/>
    </g>
  </g>
</svg>
