<svg xmlns="http://www.w3.org/2000/svg" width="600" height="300" xml:space="preserve"><path fill="#00AA5A" d="M128.607 25.047c-3.604-9.415-12.622-15.142-22.143-15.046-9.521-.096-18.534 5.631-22.137 15.046L20.264 192.494c-4.627 12.092 1.426 25.646 13.518 30.272 12.092 4.628 25.646-1.432 30.272-13.519l42.41-110.863 42.415 110.863c4.627 12.087 18.181 18.146 30.273 13.519 12.092-4.627 18.141-18.181 13.514-30.272L128.607 25.047m327.345 34.411h101.901c12.943 0 23.438-10.495 23.438-23.443 0-12.943-10.494-23.442-23.438-23.442H455.952c-12.95 0-23.443 10.499-23.443 23.442 0 12.948 10.493 23.443 23.443 23.443m101.902 34.265H455.952c-12.95 0-23.443 10.494-23.443 23.438s10.493 23.443 23.443 23.443h101.901c12.943 0 23.438-10.5 23.438-23.443s-10.494-23.438-23.437-23.438m0 81.14H455.952c-12.95 0-23.443 10.493-23.443 23.442 0 12.943 10.493 23.438 23.443 23.438h101.901c12.943 0 23.438-10.494 23.438-23.438 0-12.949-10.494-23.442-23.437-23.442M334.729 25.047c-3.604-9.415-12.616-15.142-22.143-15.046-9.516-.096-18.533 5.631-22.137 15.046L226.39 192.494c-4.627 12.092 1.426 25.646 13.513 30.272 12.092 4.628 25.646-1.432 30.272-13.519l42.41-110.863L355 209.247c4.628 12.087 18.181 18.146 30.271 13.519 12.092-4.627 18.146-18.181 13.52-30.272L334.729 25.047"/><path fill="#1A1A1A" d="M20.319 271.114a2.27 2.27 0 0 1 2.289-2.288h6.214c4.965 0 7.969 2.943 7.969 7.197v.061c0 4.813-3.75 7.313-8.413 7.313h-3.482v4.133a2.272 2.272 0 0 1-2.289 2.289 2.272 2.272 0 0 1-2.289-2.289v-16.416m8.206 8.206c2.289 0 3.63-1.361 3.63-3.151v-.055c0-2.057-1.427-3.15-3.72-3.15h-3.538v6.356h3.628zm11.926 1.401v-9.783a2.27 2.27 0 0 1 2.289-2.287 2.271 2.271 0 0 1 2.293 2.287v9.663c0 3.392 1.694 5.146 4.491 5.146 2.793 0 4.487-1.694 4.487-4.996v-9.813c0-1.279 1.008-2.287 2.288-2.287s2.289 1.008 2.289 2.287v9.633c0 6.301-3.539 9.4-9.124 9.4-5.595 0-9.013-3.125-9.013-9.25m22.989 6.719c-.504-.358-.862-1.009-.862-1.724 0-1.185.948-2.112 2.143-2.112.589 0 1.008.206 1.305.419 1.572 1.154 3.302 1.869 5.323 1.869 1.87 0 2.998-.741 2.998-1.96v-.062c0-1.159-.71-1.754-4.188-2.646-4.193-1.068-6.895-2.227-6.895-6.355v-.064c0-3.776 3.029-6.272 7.279-6.272 2.53 0 4.727.657 6.603 1.841a2.106 2.106 0 0 1 1.013 1.813c0 1.196-.953 2.113-2.142 2.113a2.18 2.18 0 0 1-1.165-.328c-1.512-.892-2.938-1.396-4.365-1.396-1.754 0-2.676.808-2.676 1.815v.056c0 1.37.892 1.813 4.491 2.736 4.219 1.1 6.598 2.616 6.598 6.246v.06c0 4.133-3.15 6.452-7.642 6.452-2.731-.001-5.499-.832-7.818-2.501m20.041-16.502a2.27 2.27 0 0 1 2.289-2.287 2.271 2.271 0 0 1 2.293 2.287v6.13h8.442v-6.13a2.267 2.267 0 0 1 2.288-2.287 2.267 2.267 0 0 1 2.289 2.287v16.593a2.272 2.272 0 0 1-2.289 2.289 2.271 2.271 0 0 1-2.288-2.289v-6.244h-8.442v6.244a2.276 2.276 0 0 1-2.293 2.289 2.275 2.275 0 0 1-2.289-2.289v-16.593m23.403 0a2.271 2.271 0 0 1 2.293-2.287 2.271 2.271 0 0 1 2.289 2.287v16.593a2.275 2.275 0 0 1-2.289 2.289 2.276 2.276 0 0 1-2.293-2.289v-16.593m10.383.06a2.27 2.27 0 0 1 2.289-2.288h.474c1.099 0 1.754.534 2.384 1.335l8.825 11.6v-10.737a2.258 2.258 0 0 1 2.258-2.257 2.255 2.255 0 0 1 2.259 2.257v16.563a2.27 2.27 0 0 1-2.289 2.288h-.147c-1.098 0-1.754-.534-2.379-1.335l-9.158-12.017v11.148a2.26 2.26 0 0 1-2.258 2.264 2.26 2.26 0 0 1-2.258-2.264v-16.557m23.166 8.292v-.056c0-5.917 4.607-10.763 10.907-10.763 3.155 0 5.233.718 7.107 2.022.448.327.953.953.953 1.846a2.254 2.254 0 0 1-2.258 2.258c-.656 0-1.074-.242-1.401-.479-1.246-.892-2.581-1.422-4.547-1.422-3.332 0-5.978 2.938-5.978 6.478v.061c0 3.81 2.616 6.598 6.305 6.598 1.663 0 3.15-.414 4.31-1.249v-2.974h-3.09c-1.104 0-1.996-.858-1.996-1.957s.892-1.995 1.996-1.995h5.232a2.27 2.27 0 0 1 2.288 2.289V285c0 1.342-.504 2.265-1.608 2.914-1.693 1.043-4.159 2.086-7.278 2.086-6.486 0-10.942-4.551-10.942-10.71m39.189-6.24h-4.395a2.123 2.123 0 0 1-2.118-2.112c0-1.159.958-2.111 2.118-2.111h13.377c1.16 0 2.106.952 2.106 2.111a2.113 2.113 0 0 1-2.106 2.112h-4.4v14.48a2.275 2.275 0 0 1-2.289 2.289 2.276 2.276 0 0 1-2.293-2.289v-14.48m15.021 14.3v-16.235a2.274 2.274 0 0 1 2.293-2.288h11.532c1.129 0 2.052.923 2.052 2.057 0 1.128-.923 2.021-2.052 2.021h-9.279v4.219h7.944c1.128 0 2.046.917 2.046 2.051s-.917 2.021-2.046 2.021h-7.944v4.375h9.426c1.135 0 2.051.917 2.051 2.051 0 1.125-.917 2.017-2.051 2.017h-11.679a2.272 2.272 0 0 1-2.293-2.289m19.596-8.06v-.056c0-5.917 4.461-10.763 10.852-10.763 3.12 0 5.232.833 6.956 2.113a2.27 2.27 0 0 1 .893 1.811c0 1.249-1.008 2.231-2.258 2.231-.626 0-1.043-.236-1.372-.442-1.275-.958-2.616-1.488-4.249-1.488-3.508 0-6.039 2.909-6.039 6.478v.061c0 3.568 2.47 6.543 6.039 6.543 1.93 0 3.21-.6 4.521-1.639a2.17 2.17 0 0 1 1.366-.504c1.16 0 2.143.948 2.143 2.112 0 .71-.358 1.279-.776 1.633-1.87 1.639-4.073 2.62-7.399 2.62-6.13 0-10.677-4.732-10.677-10.71m23.463-8.352a2.272 2.272 0 0 1 2.294-2.287 2.27 2.27 0 0 1 2.288 2.287v6.13h8.442v-6.13c0-1.279 1.008-2.287 2.289-2.287s2.289 1.008 2.289 2.287v16.593c0 1.275-1.008 2.289-2.289 2.289s-2.289-1.014-2.289-2.289v-6.244h-8.442v6.244a2.274 2.274 0 0 1-2.288 2.289 2.276 2.276 0 0 1-2.294-2.289v-16.593m23.196.06a2.275 2.275 0 0 1 2.293-2.288h.474c1.099 0 1.754.534 2.375 1.335l8.835 11.6v-10.737a2.254 2.254 0 0 1 2.258-2.257 2.257 2.257 0 0 1 2.258 2.257v16.563a2.274 2.274 0 0 1-2.289 2.288h-.151c-1.099 0-1.754-.534-2.379-1.335l-9.153-12.017v11.148a2.264 2.264 0 0 1-2.264 2.264 2.263 2.263 0 0 1-2.258-2.264v-16.557m24.296-.06a2.272 2.272 0 0 1 2.293-2.287 2.27 2.27 0 0 1 2.288 2.287v16.593a2.274 2.274 0 0 1-2.288 2.289 2.276 2.276 0 0 1-2.293-2.289v-16.593m9.456 8.352v-.056c0-5.917 4.46-10.763 10.852-10.763 3.121 0 5.232.833 6.961 2.113.474.353.893 1.008.893 1.811 0 1.249-1.014 2.231-2.264 2.231-.62 0-1.043-.236-1.365-.442-1.281-.958-2.621-1.488-4.254-1.488-3.509 0-6.034 2.909-6.034 6.478v.061c0 3.568 2.465 6.543 6.034 6.543 1.935 0 3.21-.6 4.521-1.639a2.168 2.168 0 0 1 1.365-.504c1.165 0 2.143.948 2.143 2.112 0 .71-.358 1.279-.771 1.633-1.875 1.639-4.077 2.62-7.403 2.62-6.127 0-10.678-4.732-10.678-10.71m22.309 7.404 7.252-16.382c.505-1.123 1.428-1.81 2.673-1.81h.267c1.251 0 2.142.687 2.646 1.81l7.26 16.382c.146.332.236.625.236.927 0 1.216-.953 2.198-2.172 2.198-1.069 0-1.78-.63-2.198-1.578l-1.401-3.271h-9.153l-1.457 3.418c-.383.896-1.158 1.432-2.112 1.432-1.188 0-2.11-.953-2.11-2.143-.002-.327.118-.651.269-.983m12.867-5.767-2.882-6.869-2.884 6.869h5.766zm11.665-9.989c0-1.279 1.008-2.287 2.288-2.287s2.288 1.008 2.288 2.287v14.542h8.474c1.158 0 2.081.922 2.081 2.076a2.067 2.067 0 0 1-2.081 2.082h-10.762a2.267 2.267 0 0 1-2.288-2.288v-16.412m28.514.176a2.275 2.275 0 0 1 2.293-2.288h7.368c2.385 0 4.255.654 5.445 1.849.952.948 1.425 2.107 1.425 3.539v.055c0 2.35-1.25 3.655-2.736 4.492 2.409.923 3.896 2.319 3.896 5.11v.062c0 3.805-3.096 5.705-7.787 5.705h-7.611a2.272 2.272 0 0 1-2.293-2.288v-16.236m8.684 6.123c2.021 0 3.302-.649 3.302-2.196v-.056c0-1.371-1.073-2.142-3.004-2.142h-4.517v4.394h4.219zm1.22 8.389c2.021 0 3.24-.712 3.24-2.259v-.061c0-1.396-1.043-2.257-3.387-2.257h-5.293v4.576h5.44zm11.239-6.336v-.056c0-5.917 4.667-10.763 11.09-10.763 6.421 0 11.033 4.785 11.033 10.702v.061c0 5.917-4.673 10.766-11.09 10.766-6.425 0-11.033-4.792-11.033-10.71m17.335 0v-.056c0-3.563-2.616-6.538-6.302-6.538-3.689 0-6.244 2.909-6.244 6.478v.061c0 3.568 2.615 6.543 6.301 6.543 3.69-.001 6.245-2.92 6.245-6.488zm9.132 1.431v-9.783c0-1.279 1.009-2.287 2.289-2.287s2.288 1.008 2.288 2.287v9.663c0 3.392 1.693 5.146 4.492 5.146 2.797 0 4.49-1.694 4.49-4.996v-9.813c0-1.279 1.008-2.287 2.288-2.287s2.288 1.008 2.288 2.287v9.633c0 6.301-3.533 9.4-9.128 9.4-5.59 0-9.007-3.125-9.007-9.25m23.408-9.723a2.27 2.27 0 0 1 2.288-2.288h.474c1.1 0 1.749.534 2.38 1.335l8.826 11.6v-10.737a2.258 2.258 0 0 1 2.262-2.257 2.26 2.26 0 0 1 2.265 2.257v16.563a2.276 2.276 0 0 1-2.294 2.288h-.152c-1.093 0-1.748-.534-2.374-1.335l-9.163-12.017v11.148a2.258 2.258 0 0 1-2.253 2.264 2.26 2.26 0 0 1-2.258-2.264v-16.557m24.087.116a2.27 2.27 0 0 1 2.289-2.288h5.826c6.538 0 11.063 4.491 11.063 10.348v.061c0 5.856-4.525 10.403-11.063 10.403h-5.826a2.268 2.268 0 0 1-2.289-2.288v-16.236m8.116 14.39c3.746 0 6.274-2.524 6.274-6.214v-.056c0-3.689-2.528-6.271-6.274-6.271h-3.538v12.54h3.538zm13.679 1.19 7.258-16.382c.504-1.123 1.421-1.81 2.673-1.81h.267c1.25 0 2.142.687 2.646 1.81l7.26 16.382c.144.332.235.625.235.927 0 1.216-.952 2.198-2.173 2.198-1.073 0-1.783-.63-2.202-1.578l-1.396-3.271h-9.153l-1.457 3.418c-.388.896-1.157 1.432-2.111 1.432-1.195 0-2.112-.953-2.112-2.143-.002-.327.115-.651.265-.983m12.872-5.767-2.882-6.869-2.884 6.869h5.766zm11.665-9.813a2.27 2.27 0 0 1 2.288-2.288h7.223c2.646 0 4.697.745 6.064 2.111 1.159 1.164 1.784 2.798 1.784 4.764v.05c0 3.277-1.633 5.299-4.159 6.337l3.181 3.865c.443.563.741 1.038.741 1.753 0 1.276-1.073 2.113-2.173 2.113-1.038 0-1.718-.505-2.257-1.189l-4.462-5.65h-3.654v4.551c0 1.275-1.008 2.289-2.288 2.289s-2.288-1.014-2.288-2.289v-16.417m9.214 7.823c2.228 0 3.508-1.189 3.508-2.943v-.055c0-1.967-1.366-2.975-3.599-2.975h-4.547v5.973h4.638zm13.084-7.999a2.274 2.274 0 0 1 2.289-2.287 2.271 2.271 0 0 1 2.293 2.287v16.593a2.276 2.276 0 0 1-2.293 2.289 2.278 2.278 0 0 1-2.289-2.289v-16.593m10.384 16.412v-16.235a2.271 2.271 0 0 1 2.288-2.288h11.532c1.134 0 2.052.923 2.052 2.057 0 1.128-.918 2.021-2.052 2.021h-9.274v4.219h7.938c1.131 0 2.051.917 2.051 2.051s-.92 2.021-2.051 2.021h-7.938v4.375h9.421c1.134 0 2.057.917 2.057 2.051 0 1.125-.923 2.017-2.057 2.017h-11.679a2.27 2.27 0 0 1-2.288-2.289m20.101.09c-.504-.358-.861-1.009-.861-1.724 0-1.185.952-2.112 2.137-2.112a2.2 2.2 0 0 1 1.315.419c1.567 1.154 3.296 1.869 5.323 1.869 1.87 0 2.994-.741 2.994-1.96v-.062c0-1.159-.705-1.754-4.188-2.646-4.193-1.068-6.896-2.227-6.896-6.355v-.064c0-3.776 3.034-6.272 7.278-6.272 2.53 0 4.732.657 6.603 1.841a2.092 2.092 0 0 1 1.008 1.813c0 1.196-.947 2.113-2.137 2.113-.449 0-.801-.115-1.159-.328-1.518-.892-2.943-1.396-4.37-1.396-1.755 0-2.677.808-2.677 1.815v.056c0 1.37.893 1.813 4.491 2.736 4.219 1.1 6.604 2.616 6.604 6.246v.06c0 4.133-3.155 6.452-7.646 6.452-2.732-.001-5.5-.832-7.819-2.501"/></svg>