<svg xmlns="http://www.w3.org/2000/svg" width="170" height="47.659" viewBox="0 0 170 47.659">
                        <g id="Group_1739" data-name="Group 1739" transform="translate(-375 -12)">
                            <g id="Group_1738" data-name="Group 1738">
                            <g id="Group_440" data-name="Group 440" transform="translate(0 -68)">
                                <g id="Logo_OTYS_-_Made_by_recruiters" data-name="Logo OTYS - Made by recruiters" transform="translate(353.8 70.2)">
                                <path id="Path_81_00000005262241533838481280000004276031563115789225_" d="M463.441,37.12a7.681,7.681,0,0,0-7.1-4.69h-28.17a1.526,1.526,0,0,1-1.014-.412,1.234,1.234,0,0,1-.444-.951,1.27,1.27,0,0,1,.412-.982,1.526,1.526,0,0,1,1.014-.412h27.916a3.158,3.158,0,0,0,3.137-3.105v-.032a3.158,3.158,0,0,0-3.105-3.137H428.268A7.641,7.641,0,0,0,420.6,31a7.632,7.632,0,0,0,2.25,5.45,8.346,8.346,0,0,0,2.408,1.648,7.513,7.513,0,0,0,3.01.6h28.3a1.39,1.39,0,0,1,.982.412,1.234,1.234,0,0,1,.412,1.014,1.374,1.374,0,0,1-.412.951,1.39,1.39,0,0,1-.982.412H425.353a3.122,3.122,0,1,0-.1,6.242h31.085a8.069,8.069,0,0,0,3.01-.57,7.456,7.456,0,0,0,2.44-1.616,8.346,8.346,0,0,0,1.648-2.408,7.827,7.827,0,0,0,0-6.02Z" transform="translate(-272.843 -9.29)" fill="#ffd300"></path>
                                <path id="Path_82_00000155132774207917787650000014195077014173796028_" d="M106.311,23.4H69.427a8.544,8.544,0,0,0-4.4,1.141,11.016,11.016,0,0,0-2.915,2.5,11.628,11.628,0,0,0-2.915-2.5,8.544,8.544,0,0,0-4.4-1.141H31.562a8.51,8.51,0,0,0-4.373,1.141,10.931,10.931,0,0,0-3.264,2.884,13.068,13.068,0,0,0-2.028,3.9,13.7,13.7,0,0,0-.7,4.246,3.042,3.042,0,1,0,6.084,0,8.123,8.123,0,0,1,.222-1.965,4.644,4.644,0,0,1,.824-1.9,4.751,4.751,0,0,1,1.616-1.458,5.422,5.422,0,0,1,2.725-.57H53.647a5.78,5.78,0,0,1,2.725.57A4.751,4.751,0,0,1,57.988,31.7a5.976,5.976,0,0,1,.824,1.9,8.123,8.123,0,0,1,.222,1.965,10.7,10.7,0,0,1-.222,2,4.969,4.969,0,0,1-2.472,3.359,5.681,5.681,0,0,1-2.693.6H33.083a3.137,3.137,0,1,0-.063,6.274H54.788a8.511,8.511,0,0,0,4.373-1.141,10.931,10.931,0,0,0,3.264-2.884,13.068,13.068,0,0,0,2.028-3.9,13.7,13.7,0,0,0,.7-4.246,10.085,10.085,0,0,1,.222-1.965,4.644,4.644,0,0,1,.824-1.9A5.46,5.46,0,0,1,67.811,30.3a5.808,5.808,0,0,1,2.725-.6H85.081V44.658a3.137,3.137,0,1,0,6.274,0V29.7h14.988A3.158,3.158,0,0,0,109.48,26.6h0a3.205,3.205,0,0,0-3.169-3.2Z" transform="translate(0 -9.287)" fill="#ffd300"></path>
                                <path id="Path_83_00000136411043793727013990000007938063236894217654_" d="M341.121,14.99a3.592,3.592,0,0,0-1.394-2.979,3.524,3.524,0,0,0-2.693-.507,3.29,3.29,0,0,0-2.218,1.489c-1.9,3.2-6.939,10.615-12.611,10.615s-10.71-7.446-12.611-10.615a3.29,3.29,0,0,0-2.218-1.489,3.393,3.393,0,0,0-2.693.507,3.867,3.867,0,0,0-.887,4.911,20.81,20.81,0,0,0,36.852.032A4.837,4.837,0,0,0,341.121,14.99Z" transform="translate(-192.698 -1.102)" fill="#ffd300"></path>
                                <circle id="Ellipse_15_00000083049337281673117150000010105438515468744361_" cx="4.214" cy="4.214" r="4.214" transform="translate(125.26 9.8)" fill="#ffd300"></circle>
                                <circle id="Ellipse_16_00000165923221980815126420000002520413646961852080_" cx="4.214" cy="4.214" r="4.214" transform="translate(125.26 29.446)" fill="#ffd300"></circle>
                                </g>
                                <path id="Path_609" data-name="Path 609" d="M.716-9.455h2.83L5.946-3.6h.111l2.4-5.854h2.83V0H9.062V-5.808H8.984L6.712-.06H5.29L3.019-5.84H2.941V0H.716Zm14,9.575a2.983,2.983,0,0,1-1.2-.229A1.841,1.841,0,0,1,12.688-.8a2.094,2.094,0,0,1-.3-1.166,2.173,2.173,0,0,1,.208-1,1.775,1.775,0,0,1,.572-.66,2.732,2.732,0,0,1,.84-.385,5.588,5.588,0,0,1,1.016-.178q.6-.055.974-.118a1.366,1.366,0,0,0,.538-.18A.384.384,0,0,0,16.7-4.82v-.023a.66.66,0,0,0-.245-.549,1.034,1.034,0,0,0-.66-.194,1.216,1.216,0,0,0-.72.194.854.854,0,0,0-.346.536L12.649-4.93a2.464,2.464,0,0,1,.478-1.156,2.583,2.583,0,0,1,1.062-.8,4.079,4.079,0,0,1,1.627-.293,4.656,4.656,0,0,1,1.251.159,3.166,3.166,0,0,1,1,.462,2.129,2.129,0,0,1,.658.741,2.1,2.1,0,0,1,.233,1V0H16.832V-.988h-.055a2.029,2.029,0,0,1-.482.609A1.959,1.959,0,0,1,15.606,0,2.945,2.945,0,0,1,14.717.12Zm.7-1.477a1.441,1.441,0,0,0,.658-.148,1.209,1.209,0,0,0,.469-.409,1.062,1.062,0,0,0,.175-.607v-.674a1.362,1.362,0,0,1-.233.092q-.136.042-.3.078t-.332.065l-.328.051a2.006,2.006,0,0,0-.542.157.847.847,0,0,0-.342.275.68.68,0,0,0-.118.4.623.623,0,0,0,.252.536A1.052,1.052,0,0,0,15.414-1.357ZM22.921.1A2.612,2.612,0,0,1,21.494-.3a2.812,2.812,0,0,1-1.025-1.219,4.718,4.718,0,0,1-.383-2.017,4.666,4.666,0,0,1,.4-2.059,2.771,2.771,0,0,1,1.041-1.2,2.642,2.642,0,0,1,1.387-.388,2.182,2.182,0,0,1,.956.192,2,2,0,0,1,.656.492,2.315,2.315,0,0,1,.392.623h.046V-9.455h2.257V0H24.984V-1.15h-.069a2.217,2.217,0,0,1-.406.614,1.962,1.962,0,0,1-.658.462A2.275,2.275,0,0,1,22.921.1Zm.785-1.759a1.087,1.087,0,0,0,.7-.233,1.473,1.473,0,0,0,.448-.658,2.874,2.874,0,0,0,.157-1,2.9,2.9,0,0,0-.155-1,1.4,1.4,0,0,0-.448-.646,1.118,1.118,0,0,0-.7-.226,1.108,1.108,0,0,0-.711.231,1.412,1.412,0,0,0-.441.651,2.954,2.954,0,0,0-.15.993,2.953,2.953,0,0,0,.152,1A1.45,1.45,0,0,0,23-1.89,1.091,1.091,0,0,0,23.706-1.657ZM31.964.134a3.938,3.938,0,0,1-1.918-.441,3,3,0,0,1-1.237-1.26,4.132,4.132,0,0,1-.432-1.95,4.069,4.069,0,0,1,.434-1.923,3.152,3.152,0,0,1,1.223-1.283,3.634,3.634,0,0,1,1.86-.459,3.916,3.916,0,0,1,1.385.235,2.977,2.977,0,0,1,1.085.7,3.181,3.181,0,0,1,.711,1.138,4.388,4.388,0,0,1,.254,1.549V-3H29.167V-4.312h4.062a1.272,1.272,0,0,0-.171-.642,1.181,1.181,0,0,0-.455-.441,1.348,1.348,0,0,0-.662-.159,1.362,1.362,0,0,0-.679.169,1.279,1.279,0,0,0-.475.457,1.3,1.3,0,0,0-.185.653v1.334a1.611,1.611,0,0,0,.171.759,1.228,1.228,0,0,0,.485.506,1.479,1.479,0,0,0,.748.18,1.686,1.686,0,0,0,.545-.083,1.163,1.163,0,0,0,.42-.245,1.01,1.01,0,0,0,.263-.4l2.073.06a2.561,2.561,0,0,1-.566,1.212,2.866,2.866,0,0,1-1.143.8A4.359,4.359,0,0,1,31.964.134ZM39.286,0V-9.455h2.257v3.578h.046a2.446,2.446,0,0,1,.395-.623,1.964,1.964,0,0,1,.656-.492,2.2,2.2,0,0,1,.958-.192,2.634,2.634,0,0,1,1.383.388,2.771,2.771,0,0,1,1.041,1.2,4.666,4.666,0,0,1,.4,2.059,4.743,4.743,0,0,1-.381,2.017A2.792,2.792,0,0,1,45.013-.3,2.624,2.624,0,0,1,43.584.1a2.259,2.259,0,0,1-.928-.175A1.993,1.993,0,0,1,42-.536a2.193,2.193,0,0,1-.409-.614h-.069V0ZM41.5-3.545a2.913,2.913,0,0,0,.155,1,1.449,1.449,0,0,0,.448.658,1.1,1.1,0,0,0,.7.233,1.094,1.094,0,0,0,.706-.233,1.427,1.427,0,0,0,.441-.658,3,3,0,0,0,.15-1,2.954,2.954,0,0,0-.15-.993,1.42,1.42,0,0,0-.439-.651A1.1,1.1,0,0,0,42.8-5.42a1.116,1.116,0,0,0-.706.226,1.411,1.411,0,0,0-.445.646A2.9,2.9,0,0,0,41.5-3.545Zm7.257,6.2a4.493,4.493,0,0,1-.766-.062,3.2,3.2,0,0,1-.619-.164l.5-1.639a2.458,2.458,0,0,0,.6.129.855.855,0,0,0,.466-.085.681.681,0,0,0,.3-.367l.088-.212L46.806-7.091H49.17l1.306,5.06h.074l1.325-5.06h2.377L51.58.679a3.334,3.334,0,0,1-.547,1.027,2.421,2.421,0,0,1-.909.7A3.289,3.289,0,0,1,48.755,2.659ZM57.914,0V-7.091h2.193V-5.8h.074a1.932,1.932,0,0,1,.632-1.046,1.606,1.606,0,0,1,1.02-.344,2.605,2.605,0,0,1,.323.021,2,2,0,0,1,.309.062v1.962a2.156,2.156,0,0,0-.422-.088,3.819,3.819,0,0,0-.464-.032,1.466,1.466,0,0,0-.722.178,1.294,1.294,0,0,0-.5.494,1.457,1.457,0,0,0-.182.741V0Zm8.42.134a3.938,3.938,0,0,1-1.918-.441,3,3,0,0,1-1.237-1.26,4.132,4.132,0,0,1-.432-1.95,4.069,4.069,0,0,1,.434-1.923A3.152,3.152,0,0,1,64.4-6.724a3.634,3.634,0,0,1,1.86-.459,3.916,3.916,0,0,1,1.385.235,2.977,2.977,0,0,1,1.085.7,3.181,3.181,0,0,1,.711,1.138A4.388,4.388,0,0,1,69.7-3.564V-3H63.537V-4.312H67.6a1.272,1.272,0,0,0-.171-.642,1.181,1.181,0,0,0-.455-.441,1.348,1.348,0,0,0-.662-.159,1.362,1.362,0,0,0-.679.169,1.279,1.279,0,0,0-.476.457,1.3,1.3,0,0,0-.185.653v1.334a1.611,1.611,0,0,0,.171.759,1.228,1.228,0,0,0,.485.506,1.479,1.479,0,0,0,.748.18,1.687,1.687,0,0,0,.545-.083,1.163,1.163,0,0,0,.42-.245,1.01,1.01,0,0,0,.263-.4l2.073.06a2.561,2.561,0,0,1-.566,1.212,2.866,2.866,0,0,1-1.143.8A4.359,4.359,0,0,1,66.334.134Zm7.834,0a3.788,3.788,0,0,1-1.923-.462,3.115,3.115,0,0,1-1.23-1.286,4.073,4.073,0,0,1-.429-1.909,4.066,4.066,0,0,1,.432-1.914A3.13,3.13,0,0,1,72.25-6.722a3.769,3.769,0,0,1,1.914-.462,3.884,3.884,0,0,1,1.715.355,2.747,2.747,0,0,1,1.145,1A2.919,2.919,0,0,1,77.46-4.3H75.35a1.421,1.421,0,0,0-.367-.854,1.052,1.052,0,0,0-.787-.309,1.123,1.123,0,0,0-.688.219,1.405,1.405,0,0,0-.459.646,2.961,2.961,0,0,0-.164,1.055,3,3,0,0,0,.164,1.059,1.4,1.4,0,0,0,.459.651,1.123,1.123,0,0,0,.688.219,1.131,1.131,0,0,0,.556-.134,1.067,1.067,0,0,0,.4-.395,1.55,1.55,0,0,0,.2-.635h2.11a3.086,3.086,0,0,1-.436,1.533A2.721,2.721,0,0,1,75.893-.229,3.825,3.825,0,0,1,74.168.134ZM78.619,0V-7.091h2.193V-5.8h.074a1.932,1.932,0,0,1,.632-1.046,1.606,1.606,0,0,1,1.02-.344,2.605,2.605,0,0,1,.323.021,2,2,0,0,1,.309.062v1.962a2.156,2.156,0,0,0-.422-.088,3.819,3.819,0,0,0-.464-.032,1.466,1.466,0,0,0-.722.178,1.294,1.294,0,0,0-.5.494,1.457,1.457,0,0,0-.182.741V0Zm10.05-3.061v-4.03h2.253V0H88.77V-1.32H88.7a2.054,2.054,0,0,1-.8,1.032,2.385,2.385,0,0,1-1.364.381A2.413,2.413,0,0,1,85.257-.24a2.261,2.261,0,0,1-.854-.93,3.087,3.087,0,0,1-.309-1.4v-4.52h2.257v4.076a1.324,1.324,0,0,0,.3.909,1.046,1.046,0,0,0,.817.332,1.229,1.229,0,0,0,.607-.15,1.091,1.091,0,0,0,.429-.439A1.428,1.428,0,0,0,88.669-3.061ZM92.357,0V-7.091h2.257V0Zm1.131-7.917a1.161,1.161,0,0,1-.817-.316A1,1,0,0,1,92.33-9a1,1,0,0,1,.342-.759,1.161,1.161,0,0,1,.817-.316,1.159,1.159,0,0,1,.819.316A1,1,0,0,1,94.647-9a1.007,1.007,0,0,1-.339.764A1.159,1.159,0,0,1,93.488-7.917Zm6.56.826v1.662H95.575V-7.091Zm-3.536-1.7H98.77v6.56a.719.719,0,0,0,.067.335.379.379,0,0,0,.2.18.813.813,0,0,0,.309.053,1.6,1.6,0,0,0,.275-.025q.145-.025.219-.044l.342,1.63q-.162.046-.455.115a3.84,3.84,0,0,1-.7.088,3.273,3.273,0,0,1-1.36-.187,1.74,1.74,0,0,1-.863-.7,2.161,2.161,0,0,1-.289-1.2ZM104.443.134a3.938,3.938,0,0,1-1.918-.441,3,3,0,0,1-1.237-1.26,4.132,4.132,0,0,1-.432-1.95,4.069,4.069,0,0,1,.434-1.923,3.152,3.152,0,0,1,1.223-1.283,3.634,3.634,0,0,1,1.86-.459,3.916,3.916,0,0,1,1.385.235,2.977,2.977,0,0,1,1.085.7,3.181,3.181,0,0,1,.711,1.138,4.388,4.388,0,0,1,.254,1.549V-3h-6.163V-4.312h4.063a1.272,1.272,0,0,0-.171-.642,1.181,1.181,0,0,0-.455-.441,1.348,1.348,0,0,0-.662-.159,1.362,1.362,0,0,0-.679.169,1.279,1.279,0,0,0-.476.457,1.3,1.3,0,0,0-.185.653v1.334a1.611,1.611,0,0,0,.171.759,1.228,1.228,0,0,0,.485.506,1.479,1.479,0,0,0,.748.18,1.687,1.687,0,0,0,.545-.083,1.163,1.163,0,0,0,.42-.245,1.01,1.01,0,0,0,.263-.4l2.073.06a2.561,2.561,0,0,1-.566,1.212,2.866,2.866,0,0,1-1.143.8A4.359,4.359,0,0,1,104.443.134ZM108.967,0V-7.091h2.193V-5.8h.074a1.932,1.932,0,0,1,.632-1.046,1.606,1.606,0,0,1,1.02-.344,2.605,2.605,0,0,1,.323.021,2,2,0,0,1,.309.062v1.962a2.156,2.156,0,0,0-.422-.088,3.819,3.819,0,0,0-.464-.032,1.466,1.466,0,0,0-.722.178,1.294,1.294,0,0,0-.5.494,1.457,1.457,0,0,0-.182.741V0Zm11.666-4.926-2.073.055a.786.786,0,0,0-.175-.395.977.977,0,0,0-.372-.272,1.317,1.317,0,0,0-.529-.1,1.325,1.325,0,0,0-.667.157.465.465,0,0,0-.27.425.451.451,0,0,0,.168.36,1.4,1.4,0,0,0,.621.245l1.366.259a3.235,3.235,0,0,1,1.581.674,1.615,1.615,0,0,1,.524,1.246A2.008,2.008,0,0,1,120.377-1a2.764,2.764,0,0,1-1.166.838,4.491,4.491,0,0,1-1.69.3,4.047,4.047,0,0,1-2.394-.626,2.318,2.318,0,0,1-1-1.678l2.23-.055a.869.869,0,0,0,.383.591,1.412,1.412,0,0,0,.789.2,1.371,1.371,0,0,0,.706-.162.5.5,0,0,0,.277-.429.461.461,0,0,0-.212-.385,1.72,1.72,0,0,0-.651-.229l-1.237-.235a2.928,2.928,0,0,1-1.588-.718,1.8,1.8,0,0,1-.517-1.336,1.934,1.934,0,0,1,.379-1.216,2.386,2.386,0,0,1,1.089-.773,4.7,4.7,0,0,1,1.667-.268,3.8,3.8,0,0,1,2.271.6A2.172,2.172,0,0,1,120.633-4.926Z" transform="translate(421 125)" fill="#0f172a"></path>
                            </g>
                            </g>
                        </g>
                    </svg>