<svg class="logo" xmlns="http://www.w3.org/2000/svg" xmlns:xlink="http://www.w3.org/1999/xlink" version="1.1" id="Layer_1" x="0px" y="0px" viewBox="0 0 256.414 102.055" style="enable-background:new 0 0 256.414 102.055;" xml:space="preserve">
    <linearGradient id="SVGID_1_" gradientUnits="userSpaceOnUse" x1="1.0897" y1="50.833" x2="336.8526" y2="50.833">
        <stop offset="0" style="stop-color:#0C84B4"></stop>
        <stop offset="1" style="stop-color:#59BDB8"></stop>
    </linearGradient>
    <path style="fill:url(#SVGID_1_);" d="M49.306,42.368c-0.668-0.796-1.404-1.483-2.184-2.081c-0.256-0.204-0.527-0.399-0.812-0.587  c-0.013-0.008-0.025-0.018-0.038-0.026c-0.686-0.449-1.444-0.853-2.279-1.178c-1.377-0.547-2.826-0.832-4.286-0.884  c-0.215-0.01-0.425-0.031-0.644-0.031l-0.009,0.009c-2.945,0.045-5.902,1.1-8.384,3.183c-3.142,2.636-4.777,6.32-4.801,10.052  l-0.007,0.007c0,0.026,0.004,0.051,0.004,0.077c0,0.383,0.021,0.767,0.056,1.15c0.004,0.051,0.004,0.103,0.008,0.153  c0.019,0.183,0.054,0.365,0.081,0.548c0.622,4.456,3.365,8.14,7.238,10.004c0.192,0.096,0.383,0.19,0.576,0.275  c0.032,0.014,0.065,0.026,0.098,0.039c1.553,0.666,3.157,0.998,4.682,0.998c0.046,0.001,0.093-0.006,0.14-0.008  c0.107,0.002,0.211,0.016,0.318,0.016c4.2,0,7.65-1.85,9.75-4.351c0.351-0.399,0.601-0.949,0.601-1.35c0-1.101-0.851-1.9-2-1.9  c-0.7,0-1.15,0.4-1.7,0.9c-1.551,1.75-3.801,3-6.65,3c-5.15,0-9.15-4.25-9.15-9.551c0-0.896,0.123-1.756,0.336-2.573  c0.56-1.637,1.572-3.164,3.026-4.383c4.099-3.439,9.919-3.037,13.198,0.871c1.06,1.263,1.867,3.002,1.859,4.706l-12.061-0.061  c-0.494-0.043-0.903,0.17-1.247,0.459c-0.805,0.675-0.865,1.77-0.159,2.613c0.354,0.422,0.797,0.638,1.398,0.655l13.88-0.028  c0.743,0.03,1.184-0.145,1.567-0.466c0.46-0.386,0.689-0.969,0.706-1.571C52.54,48.401,51.652,45.165,49.306,42.368z"></path>
    <linearGradient id="SVGID_00000029015598140650136880000010027030839394328223_" gradientUnits="userSpaceOnUse" x1="1.0897" y1="50.833" x2="336.8526" y2="50.833">
        <stop offset="0" style="stop-color:#0C84B4"></stop>
        <stop offset="1" style="stop-color:#59BDB8"></stop>
    </linearGradient>
    <path style="fill:url(#SVGID_00000029015598140650136880000010027030839394328223_);" d="M92.8,42.127  c-0.682-0.813-1.445-1.523-2.26-2.146c-0.221-0.176-0.451-0.342-0.686-0.502c-0.051-0.035-0.102-0.07-0.154-0.104  c-0.327-0.216-0.666-0.416-1.017-0.601c-0.036-0.019-0.072-0.039-0.108-0.058c-0.3-0.155-0.607-0.296-0.921-0.427  c-0.121-0.052-0.241-0.105-0.363-0.154c-0.187-0.072-0.379-0.134-0.57-0.198c-0.246-0.084-0.491-0.168-0.741-0.237  c-0.007-0.002-0.015-0.003-0.023-0.005c-0.785-0.215-1.59-0.367-2.414-0.435c-0.132-0.011-0.264-0.006-0.396-0.013  c-0.292-0.018-0.583-0.039-0.878-0.039h-0.155l-0.016,0.016c-3.057,0.08-6.018,1.212-8.463,3.263  c-3.191,2.678-4.853,6.398-4.923,10.172l-0.019,0.019v0.155c0,0.045,0.006,0.089,0.007,0.135c0.001,0.188,0.019,0.375,0.027,0.562  c0.013,0.262,0.018,0.525,0.045,0.782c0.001,0.01,0.003,0.02,0.004,0.03c0.458,4.357,2.889,8.029,6.403,10.153  c0.018,0.011,0.036,0.021,0.054,0.032c0.272,0.163,0.549,0.319,0.833,0.463c1.787,0.941,3.743,1.461,5.737,1.461  c0.021,0,0.043,0.001,0.064,0.001c0.035,0,0.069-0.007,0.103-0.008c0.1,0.002,0.197,0.015,0.298,0.015  c3.986,0,7.645-1.635,10.032-4.479c0.421-0.479,0.693-1.106,0.693-1.597c0-1.297-1.021-2.275-2.375-2.275  c-0.855,0-1.388,0.484-1.98,1.026c-1.162,1.312-3.21,2.874-6.37,2.874c-4.921,0-8.775-4.03-8.775-9.176  c0-0.849,0.107-1.667,0.305-2.442c0.537-1.573,1.513-3.044,2.923-4.228c3.941-3.308,9.507-2.945,12.67,0.825  c1.021,1.218,1.662,2.719,1.759,4.088l-11.642-0.059c-0.534-0.035-1.028,0.133-1.521,0.545c-0.965,0.811-1.052,2.132-0.205,3.142  c0.43,0.511,0.978,0.769,1.687,0.788l13.864-0.027c0.785,0.031,1.325-0.136,1.823-0.555c0.52-0.436,0.817-1.092,0.84-1.841  C96.142,47.981,94.977,44.722,92.8,42.127z"></path>
    <linearGradient id="SVGID_00000159447056513051576710000010106014821541839493_" gradientUnits="userSpaceOnUse" x1="1.0897" y1="49.7441" x2="336.8526" y2="49.7441">
        <stop offset="0" style="stop-color:#0C84B4"></stop>
        <stop offset="1" style="stop-color:#59BDB8"></stop>
    </linearGradient>
    <path style="fill:url(#SVGID_00000159447056513051576710000010106014821541839493_);" d="M66.814,36.293  c-6.311,0-10.551,4.441-10.551,11.051v13.551c0,1.312,0.968,2.301,2.25,2.301c1.24,0,2.25-1.032,2.25-2.301V47.344  c0-4.29,2.262-6.851,6.051-6.851c1.138,0,2.1-0.962,2.1-2.1C68.914,37.235,67.972,36.293,66.814,36.293z"></path>
    <linearGradient id="SVGID_00000020362691846257842260000010747788615364991165_" gradientUnits="userSpaceOnUse" x1="1.0897" y1="49.769" x2="336.8526" y2="49.769">
        <stop offset="0" style="stop-color:#0C84B4"></stop>
        <stop offset="1" style="stop-color:#59BDB8"></stop>
    </linearGradient>
    <path style="fill:url(#SVGID_00000020362691846257842260000010747788615364991165_);" d="M110.914,36.293  c-6.771,0-11.501,4.894-11.501,11.901v12c0,1.711,1.317,3.051,3,3.051s3-1.34,3-3.051v-12.2c0-3.706,2.159-6.101,5.501-6.101  c3.341,0,5.5,2.395,5.5,6.101v12.2c0,1.711,1.317,3.051,3,3.051c1.654,0,3-1.368,3-3.051v-12  C122.414,41.186,117.685,36.293,110.914,36.293z"></path>
    <g>
        <linearGradient id="SVGID_00000160165303208496282370000002868320644779714438_" gradientUnits="userSpaceOnUse" x1="1.0897" y1="51.0277" x2="336.8526" y2="51.0277">
            <stop offset="0" style="stop-color:#0C84B4"></stop>
            <stop offset="1" style="stop-color:#59BDB8"></stop>
        </linearGradient>
        <circle style="fill:url(#SVGID_00000160165303208496282370000002868320644779714438_);" cx="245.28" cy="51.028" r="9"></circle>
            <linearGradient id="SVGID_00000125583676604691708320000003728020042402199226_" gradientUnits="userSpaceOnUse" x1="1.0897" y1="51.0276" x2="336.8526" y2="51.0276">
                <stop offset="0" style="stop-color:#0C84B4"></stop>
                <stop offset="1" style="stop-color:#59BDB8"></stop>
        </linearGradient>
        <path style="fill:url(#SVGID_00000125583676604691708320000003728020042402199226_);" d="M191.623,90l0-77.945   c10.239,0,18.538,17.449,18.538,38.972C210.162,72.552,201.862,90,191.623,90z"></path>
        <linearGradient id="SVGID_00000026867502355366619040000016790910618639158187_" gradientUnits="userSpaceOnUse" x1="1.0897" y1="51.0277" x2="336.8526" y2="51.0277">
            <stop offset="0" style="stop-color:#0C84B4"></stop>
            <stop offset="1" style="stop-color:#59BDB8"></stop>
        </linearGradient>
        <path style="fill:url(#SVGID_00000026867502355366619040000016790910618639158187_);" d="M214.51,72.814l0-43.572   c6.17,0,11.172,9.754,11.172,21.786C225.683,63.06,220.681,72.814,214.51,72.814z"></path>
        <linearGradient id="SVGID_00000099629751477407695820000004111453080006345877_" gradientUnits="userSpaceOnUse" x1="1.0897" y1="51.0276" x2="336.8526" y2="51.0276">
            <stop offset="0" style="stop-color:#0C84B4"></stop>
            <stop offset="1" style="stop-color:#59BDB8"></stop>
        </linearGradient>
        <path style="fill:url(#SVGID_00000099629751477407695820000004111453080006345877_);" d="M177.623,51.028   c0,19.341-11.218,36.051-27.496,44.009c-0.894,0.437-1.476,1.326-1.476,2.321l0,0c0,1.468,1.232,2.649,2.698,2.57   c25.792-1.4,46.275-22.758,46.275-48.899c0-26.141-20.482-47.499-46.274-48.899c-1.466-0.08-2.698,1.101-2.698,2.57v0   c0,0.995,0.582,1.884,1.476,2.321C166.405,14.977,177.623,31.687,177.623,51.028z"></path>
    </g>
    <g>
        <linearGradient id="SVGID_00000156550497872132525240000018285201333423806096_" gradientUnits="userSpaceOnUse" x1="1.0897" y1="50.4408" x2="336.8526" y2="50.4408">
            <stop offset="0" style="stop-color:#0C84B4"></stop>
            <stop offset="1" style="stop-color:#59BDB8"></stop>
        </linearGradient>
        <path style="fill:url(#SVGID_00000156550497872132525240000018285201333423806096_);" d="M2.134,58.928   c0,0.999,0.586,1.961,1.695,2.78c1.844,1.488,4.75,2.304,8.191,2.304c6.235,0,10.108-3.018,10.108-7.875   c0-5.038-4.148-6.422-8.771-7.499c-3.646-0.816-6.528-1.461-6.528-4.395c0-2.514,2.182-4.075,5.693-4.075   c2.417,0,4.748,0.888,6.563,2.5c0.449,0.397,1.094,0.499,1.64,0.256c0.484-0.212,0.778-0.643,0.788-1.154   c0-0.821-0.414-1.635-1.166-2.285c-1.525-1.645-4.443-2.615-7.825-2.615c-5.813,0-9.719,3.188-9.719,7.932   c0,4.97,4.165,6.318,8.432,7.273c3.826,0.876,6.588,1.508,6.588,4.508c0,2.587-2.19,4.131-5.859,4.131l-0.188,0.001   c-0.001,0-0.003,0-0.004,0c-3.538,0-5.979-1.48-7.404-2.723c-0.402-0.35-0.976-0.432-1.479-0.21   c-0.464,0.207-0.747,0.621-0.756,1.108L2.134,58.928z"></path>
    </g>
    <linearGradient id="SVGID_00000087380270000275002910000007909701580613214866_" gradientUnits="userSpaceOnUse" x1="1.0897" y1="50.9475" x2="336.8526" y2="50.9475">
        <stop offset="0" style="stop-color:#0C84B4"></stop>
        <stop offset="1" style="stop-color:#59BDB8"></stop>
    </linearGradient>
    <path style="fill:url(#SVGID_00000087380270000275002910000007909701580613214866_);" d="M150.046,37.247  c-1.594,0-2.886,1.092-3.185,2.584c-2.214-1.705-4.97-2.635-7.866-2.635c-7.374,0-13.15,6.041-13.15,13.752  c0,7.71,5.776,13.75,13.15,13.75c2.885,0,5.647-0.92,7.88-2.608c0.322,1.482,1.6,2.56,3.171,2.56c1.822,0,3.25-1.45,3.25-3.301  V40.497C153.296,38.675,151.869,37.247,150.046,37.247z M139.651,59.028c-4.418,0-8-3.582-8-8s3.582-8,8-8s8,3.582,8,8  S144.069,59.028,139.651,59.028z"></path>
</svg>