<svg width="400" height="400" viewBox="0 0 400 400" xmlns="http://www.w3.org/2000/svg">
  <!-- Tail - simple curved shape -->
  <path d="M 160 220 Q 120 180 110 140 Q 105 120 120 115 Q 140 115 150 140 Q 155 170 160 200 Q 160 210 160 220"
        fill="#8B4513"/>

  <!-- Body - simple rounded rectangle -->
  <rect x="160" y="200" width="80" height="100" rx="25" ry="25" fill="#D2691E"/>

  <!-- Head - perfect circle -->
  <circle cx="200" cy="160" r="50" fill="#D2691E"/>

  <!-- Belly - simple oval -->
  <ellipse cx="200" cy="240" rx="25" ry="35" fill="#F4A460"/>

  <!-- Ears - simple triangles -->
  <path d="M 175 125 L 185 105 L 195 125 Z" fill="#D2691E"/>
  <path d="M 205 125 L 215 105 L 225 125 Z" fill="#D2691E"/>

  <!-- Inner ears -->
  <path d="M 180 120 L 185 110 L 190 120 Z" fill="#F4A460"/>
  <path d="M 210 120 L 215 110 L 220 120 Z" fill="#F4A460"/>

  <!-- Eyes - simple black dots -->
  <circle cx="185" cy="155" r="6" fill="#000000"/>
  <circle cx="215" cy="155" r="6" fill="#000000"/>

  <!-- Eye highlights - tiny white dots -->
  <circle cx="187" cy="153" r="2" fill="#FFFFFF"/>
  <circle cx="217" cy="153" r="2" fill="#FFFFFF"/>

  <!-- Nose - tiny black dot -->
  <circle cx="200" cy="170" r="2" fill="#000000"/>

  <!-- Arms - simple ovals -->
  <ellipse cx="150" cy="220" rx="8" ry="18" fill="#D2691E"/>
  <ellipse cx="250" cy="220" rx="8" ry="18" fill="#D2691E"/>

  <!-- Hands - small circles -->
  <circle cx="145" cy="235" r="6" fill="#D2691E"/>
  <circle cx="255" cy="235" r="6" fill="#D2691E"/>

  <!-- Legs - simple ovals -->
  <ellipse cx="180" cy="290" rx="8" ry="15" fill="#D2691E"/>
  <ellipse cx="220" cy="290" rx="8" ry="15" fill="#D2691E"/>

  <!-- Feet - small ovals -->
  <ellipse cx="180" cy="310" rx="8" ry="5" fill="#D2691E"/>
  <ellipse cx="220" cy="310" rx="8" ry="5" fill="#D2691E"/>

  <!-- Optional: Small acorn -->
  <ellipse cx="255" cy="225" rx="3" ry="4" fill="#8B4513"/>
  <circle cx="255" cy="222" r="2" fill="#228B22"/>
</svg>
