<svg xmlns="http://www.w3.org/2000/svg" width="367" height="129" viewBox="0 0 367 129">
<g>
<path d="M 25.35 126.08 C22.20,124.70 16.77,110.28 16.22,101.84 C15.77,94.89 16.87,90.03 20.17,84.44 L 22.07 81.21 L 27.78 82.70 C35.15,84.62 48.03,91.05 54.95,96.26 C63.08,102.38 68.00,107.06 68.00,108.66 C68.00,111.40 58.75,120.00 52.49,123.08 C47.23,125.67 44.80,126.21 36.88,126.58 C31.72,126.82 26.53,126.59 25.35,126.08 ZM 66.46 101.91 C56.83,92.04 39.92,82.42 26.13,78.95 L 21.76 77.86 L 22.32 73.68 C23.55,64.49 31.05,62.65 43.61,68.46 C50.25,71.52 51.15,71.72 51.61,70.21 C53.41,64.24 55.77,59.48 57.06,59.23 C59.15,58.82 73.00,67.87 73.00,69.63 C73.00,70.43 70.99,73.23 68.53,75.86 L 64.07 80.63 L 68.61 84.43 C77.95,92.24 81.12,99.53 77.44,104.78 C74.97,108.31 71.93,107.52 66.46,101.91" fill="rgba(77,49,130,1)"/>
</g>
</svg>