<svg xmlns="http://www.w3.org/2000/svg" viewBox="0 0 500 500"><g id="freepik--Envelope--inject-97"><rect x="152.24" y="215.75" width="303.17" height="192.26" style="fill:#412683"></rect><g style="opacity:0.1"><rect x="152.24" y="215.75" width="303.17" height="192.26"></rect></g><path d="M152.24,215.75H455.4v41.32L331.73,337.51a51.15,51.15,0,0,1-55.78,0L152.24,257.07Z" style="fill:#412683"></path><path d="M152.24,215.75H455.4v41.32L331.73,337.51a51.15,51.15,0,0,1-55.78,0L152.24,257.07Z" style="opacity:0.2"></path><g style="opacity:0.1"><path d="M418.34,382.7c12.34,8.47,24.82,16.71,37.06,25.31-13-7.37-25.81-15.11-38.7-22.67S391,370,378.28,362.12q-19.84-12.09-39.67-24.5l-1.69,1.11a79.23,79.23,0,0,1-10,5.89A53.92,53.92,0,0,1,292,348.45a60.93,60.93,0,0,1-11.25-3.84,78.53,78.53,0,0,1-10-5.89l-1.66-1.09Q249.26,350,229.36,362.17,210.24,373.84,191,385.34c-12.93,7.56-25.72,15.3-38.74,22.67,12.24-8.6,24.72-16.84,37.06-25.31q18.64-12.42,37.42-24.77,18.41-12,36.87-23.89l-2.1-1.41-18.4-12.3-9.19-6.16-9.15-6.23c-24.42-16.58-48.68-33.39-72.51-50.87,25.64,14.69,50.85,30,75.91,45.64l9.4,5.83,9.36,5.91,18.71,11.83c1.68,1.05,3.34,2.12,5,3.19l4.31,2.78c.45.3.9.59,1.34.86a62.46,62.46,0,0,0,7.74,4.4,52.23,52.23,0,0,0,9.67,3.21,53.1,53.1,0,0,0,10.13,1.06,47.27,47.27,0,0,0,19.82-4.25,64,64,0,0,0,7.75-4.41c.44-.27.88-.56,1.33-.85l4.26-2.75c1.68-1.08,3.36-2.16,5.06-3.22,12.48-7.86,24.89-15.84,37.46-23.57,25.06-15.6,50.27-31,75.9-45.66-23.83,17.47-48.09,34.29-72.51,50.87-12.16,8.35-24.49,16.47-36.73,24.69-.7.47-1.4.94-2.11,1.4q18.52,11.88,36.92,24C393.44,366.13,405.91,374.42,418.34,382.7Z"></path></g><polygon points="401.58 408.01 98.42 408.01 98.42 151.56 249.98 55.31 401.58 151.56 401.58 408.01" style="fill:#412683"></polygon><polygon points="385.84 407.54 114.16 407.54 114.16 159.88 249.98 73.63 385.84 159.88 385.84 407.54" style="opacity:0.1"></polygon><rect x="108.53" y="158.38" width="282.95" height="249.01" style="fill:#ebebeb"></rect><rect x="151.77" y="217.19" width="143.68" height="8.06" transform="translate(447.22 442.43) rotate(180)" style="fill:#dbdbdb"></rect><rect x="306.81" y="190.04" width="44.18" height="8.06" transform="translate(657.79 388.14) rotate(180)" style="fill:#dbdbdb"></rect><rect x="151.77" y="237.53" width="135.96" height="8.06" transform="translate(439.51 483.12) rotate(180)" style="fill:#dbdbdb"></rect><rect x="151.77" y="278.22" width="199.21" height="8.06" transform="translate(502.75 564.51) rotate(180)" style="fill:#dbdbdb"></rect><rect x="151.77" y="298.57" width="199.21" height="8.06" transform="translate(502.75 605.2) rotate(180)" style="fill:#dbdbdb"></rect><rect x="151.77" y="318.91" width="199.21" height="8.06" transform="translate(502.75 645.89) rotate(180)" style="fill:#dbdbdb"></rect><rect x="151.77" y="339.26" width="199.21" height="8.06" transform="translate(502.75 686.58) rotate(180)" style="fill:#dbdbdb"></rect><path d="M401.58,215.75V408H98.42V215.75c13,7.38,25.81,15.12,38.7,22.68s25.67,15.38,38.42,23.21q21.3,13,42.57,26.32c.14-.09.32-.18.45-.27-.13.09-.22.22-.36.31q15.92,9.92,31.82,19.9c10.57-6.65,21.17-13.34,31.78-19.9-.14-.09-.23-.22-.36-.31a1.87,1.87,0,0,0,.45.22q21.24-13.25,42.57-26.31,19.13-11.69,38.38-23.17C375.77,230.87,388.56,223.13,401.58,215.75Z" style="fill:#412683"></path><g style="opacity:0.1"><path d="M401.58,215.75c-12.24,8.61-24.72,16.85-37.06,25.32-12.43,8.28-24.9,16.57-37.42,24.76q-19.61,12.84-39.29,25.45c-.41.28-.77.55-1.18.82q-17.42,11.13-34.92,22.26L250,315.41l-1.69-1.05q-17.47-11.13-34.87-22.3c-.41-.23-.82-.5-1.23-.78q-19.74-12.63-39.34-25.49c-12.47-8.15-24.94-16.44-37.37-24.72-12.34-8.47-24.82-16.71-37.06-25.32,13,7.38,25.81,15.12,38.7,22.68s25.67,15.38,38.42,23.21q21.3,13,42.57,26.32s0,0,.09,0q15.92,9.92,31.82,19.9c10.57-6.65,21.17-13.34,31.78-19.9.05-.09.05-.09.09-.09q21.24-13.25,42.57-26.31,19.13-11.69,38.38-23.17C375.77,230.87,388.56,223.13,401.58,215.75Z"></path><path d="M218.56,287.69c-.13.09-.22.22-.36.31-1.59,1.37-3.19,2.74-4.78,4.06-7.6,6.42-15.39,12.56-23.31,18.53C180.46,318,170.58,325,160.65,332s-20,13.7-30.23,20.26-20.58,13-31.27,18.85c9.19-8.06,18.75-15.57,28.4-22.9S147.13,333.8,157,326.79s20-13.75,30.28-20.3c8.15-5.24,16.43-10.38,24.9-15.21,2-1.14,3.91-2.23,5.92-3.32C218.25,287.87,218.43,287.78,218.56,287.69Z"></path><path d="M400.85,371.14c-10.69-5.88-21.07-12.3-31.27-18.85S349.32,338.9,339.3,332,319.5,318,309.85,310.59c-7.88-6-15.67-12.07-23.22-18.49-1.64-1.36-3.24-2.73-4.83-4.1-.14-.09-.23-.22-.36-.31a1.87,1.87,0,0,0,.45.22c2,1.14,4,2.23,5.92,3.37,8.47,4.83,16.71,10,24.9,15.21C323,313,333,319.87,342.94,326.79s19.81,14.07,29.46,21.45S391.66,363.08,400.85,371.14Z"></path></g><path d="M401.58,408H98.42V366.7l123.67-80.44a51.17,51.17,0,0,1,55.78,0L401.58,366.7Z" style="fill:#412683"></path></g></svg>