<svg version="1.1" id="Layer_1" xmlns="http://www.w3.org/2000/svg" xmlns:xlink="http://www.w3.org/1999/xlink" x="0px" y="0px" viewBox="0 0 500 500" style="width: 166px;" xml:space="preserve" data-imageid="sad-face-52" imageName="Sad Face" class="illustrations_image">
<style type="text/css">
	.st0_sad-face-52{fill:#9DCB00;}
	.st1_sad-face-52{opacity:0.32;fill:url(#SVGID_1_);enable-background:new    ;}
	.st2_sad-face-52{fill:#68E1FD;}
	.st3_sad-face-52{opacity:0.19;enable-background:new    ;}
	.st4_sad-face-52{fill:#006837;}
	.st5_sad-face-52{fill:#5FAD00;}
	.st6_sad-face-52{opacity:0.32;fill:url(#SVGID_00000133521454766417207420000005582387285616803742_);enable-background:new    ;}
	.st7_sad-face-52{fill:#5B5EA5;}
	.st8_sad-face-52{fill:#FFC388;}
	.st9_sad-face-52{fill:#686EBC;}
	.st10_sad-face-52{fill:#FFC022;}
	.st11_sad-face-52{fill:#FFD900;}
</style>
<path id="field_sad-face-52" class="st0_sad-face-52" d="M243.2,407.5L29.7,281.2c-6.8-3.8-12.6-10.1-6-14.2L238,143.5c3.2-2,8.1-3.3,11.4-1.4l224.2,130.1&#10;&#9;c6.8,3.9,8,15,1.2,18.9L271.4,407.2C262.7,412.3,252,412.4,243.2,407.5z"/>
<g id="plant_sad-face-52">
	
		<linearGradient id="SVGID_1_-sad-face-52" gradientUnits="userSpaceOnUse" x1="359.8896" y1="169.0504" x2="411.4496" y2="212.1804" gradientTransform="matrix(1 0 0 -1 0 502)">
		<stop offset="0" style="stop-color:#000000;stop-opacity:0"/>
		<stop offset="0.99" style="stop-color:#006837"/>
	</linearGradient>
	<polyline class="st1_sad-face-52" points="447.4,287.8 359.4,337.7 336.1,324.8 422.6,276.6 &#9;"/>
	<polyline class="st2_sad-face-52 targetColor" points="413.1,263 413.1,284.2 447.4,284.2 447.4,263 &#9;" style="fill: rgb(104, 225, 253);"/>
	<ellipse class="st2_sad-face-52 targetColor" cx="430.3" cy="263" rx="17.1" ry="8.4" style="fill: rgb(104, 225, 253);"/>
	<ellipse class="st3_sad-face-52" cx="430.3" cy="263" rx="17.1" ry="8.4"/>
	<ellipse class="st2_sad-face-52 targetColor" cx="430.3" cy="285" rx="17.1" ry="8.4" style="fill: rgb(104, 225, 253);"/>
	<path class="st4_sad-face-52" d="M449.5,213.7c-3.6-1.5-8.6-6.4-13-6.2c-1.7,4.1-2.1,8.9-2.6,13c-0.8,7.2-1,14.5-0.5,21.7&#10;&#9;&#9;c0.1,1.6,0.2,3.2,0.4,4.8c0,0.5,0.2,0.9,0.4,1.4v16.8c0,0.3,0.3,0.5,0.6,0.5c0.2,0,0.4-0.2,0.5-0.5V249c1.7-0.6,3.4-1.3,4.9-2.3&#10;&#9;&#9;c3.2-2,5.7-5.1,6.9-8.7c2.8-7.7,1-16.3,3.6-23.9C450.3,214,449.9,213.9,449.5,213.7z"/>
	<path class="st5_sad-face-52" d="M442.1,201.1c-2,1.2-3.7,2.9-4.9,5c-0.3,0.5-0.6,1-0.8,1.5l-0.1,0.3l0,0c-0.3,0.9-0.6,1.8-0.8,2.7&#10;&#9;&#9;c0.4-0.7,1.1-1.2,1.8-1.4c0.9-0.4,1.9-0.5,2.9-0.3c0.9,0.4,1.8,0.8,2.6,1.4c1.2,0.7,2.4,1.6,3.6,2.3c5.7,3.6,13.2,4,17.6-1.3&#10;&#9;&#9;c0.1-0.2,0.1-0.4,0.1-0.6C464.8,207.1,454.6,193.8,442.1,201.1z"/>
	<path class="st4_sad-face-52" d="M461.5,213.6l0.7-0.5c0-0.2,0-0.3-0.1-0.4c-3.4-3.5-7.1-7-11.8-8.7c-3.4-1.3-7-1.6-10.5-1&#10;&#9;&#9;c-0.4,0.4-0.7,0.9-1.1,1.4c3.8-1.3,8.7-0.5,12.1,1c4.1,1.8,7.5,4.9,10.5,8.1C461.3,213.5,461.4,213.6,461.5,213.6z"/>
	<path class="st4_sad-face-52" d="M403.9,221.3c-5.1,2.6-8.1,8-7.7,13.7c0.4,10.1,17.1,0.2,21.5-8.3s5.1,3.6,5.1,3.6"/>
	<path class="st5_sad-face-52" d="M418.9,217.7c-3.1-0.1-6.3,0.4-9.2,1.3c-2,0.5-3.9,1.2-5.8,2.2c1,0.7,2.2,1.3,3.3,1.8c2.1,0.9,4.3,1.9,5.4,3.9&#10;&#9;&#9;c0.3,0.5,0.5,1,0.6,1.5c1,3.3,0.1,7.4,1.5,10.7c1.4,3.5,4.2,6.3,8.1,6.5c4.7,0.3,6.8-4.2,7.8-8.1s2.2-9.2,0.7-13.2&#10;&#9;&#9;C429.6,219.6,423.4,217.9,418.9,217.7z"/>
	<path class="st4_sad-face-52" d="M425.1,233.5c-2-6.4-6.1-12.4-12.3-15.2h-0.2l-0.3,0.1c-0.4,0.1-0.7,0.2-1.1,0.3c7.1,2.6,11.6,9.7,13.4,16.8&#10;&#9;&#9;c2.3,9.2,1.5,19.1,1.6,28.5c0,0.3,0.2,0.5,0.5,0.5s0.5-0.2,0.5-0.5C427.2,254,428.1,243.2,425.1,233.5z"/>
</g>
<g id="sad_sad-face-52">
	
		<linearGradient id="SVGID_00000128444809805905883500000017692110160962968764_-sad-face-52" gradientUnits="userSpaceOnUse" x1="225.3806" y1="147.0689" x2="248.8206" y2="160.8589" gradientTransform="matrix(1 0 0 -1 0 502)">
		<stop offset="0" style="stop-color:#000000;stop-opacity:0"/>
		<stop offset="0.99" style="stop-color:#006837"/>
	</linearGradient>
	<path style="opacity:0.32;fill:url(#SVGID_00000128444809805905883500000017692110160962968764_);enable-background:new    ;" d="&#10;&#9;&#9;M247.3,323.6l-46.9,26.1l33.9,18.9l47-26.7C270.2,335.4,258.8,329.4,247.3,323.6z"/>
	<path class="st7_sad-face-52" d="M246.4,323.5c0,0-0.2,12.4,1.2,13.1s10.8,12.9,11.4,14.8c2.2,6.3-9.6,9.1-13.8,7s-11.2-14-11.7-17&#10;&#9;&#9;s-3.9-21.5-3.9-21.5"/>
	<path class="st7_sad-face-52" d="M264,312.7c0,0-0.2,12.4,1.2,13.1s16.7,9.8,17.5,11.6c2.4,5.9-9.4,8.1-13.6,6s-17.4-9.9-17.9-12.9&#10;&#9;&#9;s-3.9-21.5-3.9-21.5"/>
	<path class="st2_sad-face-52 targetColor" d="M216.5,193.6c0,0-8.9,13.9-7.7,26.3s13.6,111.5,21.7,110.5s12.8,0.1,17-10.3c0,0,13.4,3,17.7-7.6&#10;&#9;&#9;c0,0-3.2-93-10.9-107.5S216.5,193.6,216.5,193.6z" style="fill: rgb(104, 225, 253);"/>
	<path class="st8_sad-face-52" d="M331.2,157.2c-2.2-0.6-4.5-0.9-6.8-1.1c2.3,0,4.7,0.3,7,0.7c2.4,0.4,2.7-3.4,0.3-3.8l-1.2-0.2&#10;&#9;&#9;c0.7-0.9,0.5-2.1-0.4-2.8c-0.2-0.2-0.5-0.3-0.8-0.4c-5.2-0.6-10.5-0.2-15.6,1.4c0.1-1.9,0.1-3.8-0.1-5.7c0-0.3-0.2-0.6-0.4-0.9&#10;&#9;&#9;c-0.5-1.6-3.4-1.6-3.7,0.5c-0.5,3-0.4,6.1-0.9,9.1c-0.1,0.5-0.2,1.1-0.4,1.6c-2.3,2.4-4.6,4.8-6.9,7.3c-1.6,1.8,1.3,3.8,3,2.3&#10;&#9;&#9;c0.2,0.4,0.6,0.7,1,0.8l-0.3,0.4c-0.4,0.5-0.4,1.1-0.2,1.7l-0.3,0.3c-1.7,1.7,0.7,4.6,2.4,2.9l0.6-0.6c0.7,0.5,1.6,0.3,2.1-0.4&#10;&#9;&#9;c0-0.1,0.1-0.1,0.1-0.2c1.5-2.4,3.5-4.4,5.8-5.8l0.7-0.5c2-0.7,4.2-1.1,6.3-1.2c1.6,0.4,3.2,0.9,4.8,1.4c2.2,0.7,3.5-2.6,1.5-3.4&#10;&#9;&#9;c0.3,0.1,0.7,0.1,1,0.2C332.2,161.4,333.5,157.8,331.2,157.2z"/>
	<path d="M330.7,152.4c-2.5-0.3-5-0.5-7.5-0.3c-0.6,0-0.7,1-0.1,1c2.5-0.1,5,0,7.5,0.3C331.3,153.4,331.3,152.4,330.7,152.4z"/>
	<path d="M331.1,156.2c-2.6-0.4-5.3-0.6-8-0.6c-0.6,0-0.7,1-0.1,1c2.7,0,5.4,0.2,8,0.6C331.6,157.2,331.7,156.3,331.1,156.2z"/>
	<path d="M320.5,157.4c-3.1-1-6-0.1-8.7,1.6c-0.5,0.3,0.1,1.1,0.6,0.7c2.3-1.5,5-2.4,7.7-1.5c0.3,0.1,0.5,0,0.6-0.3&#10;&#9;&#9;C320.8,157.8,320.7,157.5,320.5,157.4z"/>
	<path d="M322,157.2c-0.5-2.2-1.4-4.3-3.6-5.2c-0.6-0.2-0.9,0.7-0.3,0.9c1.9,0.8,2.6,2.6,3,4.5C321.2,158,322.1,157.8,322,157.2z"/>
	<path d="M329.7,159.7c-2-0.9-4-1.4-6.2-1.7c-0.6-0.1-0.7,0.9-0.1,1c2,0.2,4,0.8,5.9,1.6C330,160.8,330.3,159.9,329.7,159.7z"/>
	<path class="st7_sad-face-52" d="M288.6,152.3l4.4,27c0,0-3.4,10.1-10.6,11.4s-12.7-32.3-12.7-32.3"/>
	<path class="st9_sad-face-52" d="M267.2,137.8c-1-0.2-9.3,1.1-16.4,3.5s-38.3,47.8-34.2,52.4s23.3,13.6,34.9,11.1s38.5-47.4,37.2-52.5&#10;&#9;&#9;c-2.9-11.7-11.9-11.7-11.9-11.7"/>
	<path class="st8_sad-face-52" d="M287.7,125.8c0,0,2.1,17.1-4.1,20.2s-12.9-3.3-14.9-7.1s-4.1-22.6,7.5-21.3S287.7,125.8,287.7,125.8z"/>
	<path d="M288,114.5c-4.7-1.7-10.2-5.2-18.6,0.4s-11.1,21-1,24.8l1.9-5.6c-0.9-1.1-1.3-2.6-1.2-4c0.1-1.8,1.7-3.2,3.4-3.1&#10;&#9;&#9;c0.2,0,0.3,0,0.5,0.1c1.1-0.8,1.9-1.8,2.5-3c1.7-3.4,3.6-1.7,6.1,1.3c2.5,3,7.8,3.9,10.5,2S294.1,116.6,288,114.5z"/>
	<path class="st7_sad-face-52" d="M305.9,156.2c-5.9,3.7-17.8,14.3-17.8,14.3l-8.7,18.7c0,0,5.1,7.2,14.6,2.1c6.8-3.6,17.4-16.7,22.5-24.6&#10;&#9;&#9;C314.4,162.1,310.9,158,305.9,156.2z"/>
	<path d="M241.8,222.4c-0.1-1.3-2.1-1.3-2,0l9.1,97.6c0.1,1.3,2.1,1.3,2,0C247.9,287.5,244.8,255,241.8,222.4z"/>
	<g>
		<path d="M305.6,110.3c1.7-0.6,3.1,0.6,3,2.7c0,2.1-1.2,3.9-3.1,4.8c-1.7,0.6-3.1-0.6-3-2.7C302.6,113,303.8,111.2,305.6,110.3z"/>
		<path d="M295.1,126l0.9-0.3c6.3-1.6,10.9,2.8,10.9,10.4c0,1-0.6,1.8-1.5,2.2c-0.7,0.2-1.5-0.1-1.5-1.2c0-5.6-3.3-9-8-7.8&#10;&#9;&#9;&#9;c-0.2,0.1-0.5,0.1-0.8,0.2c-5,1.7-8.3,7.6-8.7,13.6c-0.1,1-0.7,1.9-1.6,2.2c-0.7,0.2-1.4-0.1-1.3-1.2&#10;&#9;&#9;&#9;C284.1,136.1,288.6,128.2,295.1,126z"/>
		<path class="st10_sad-face-52" d="M296.7,90.5l12.5,6.1c-4-1.9-8.9-2.2-14.1-0.4l-12.5-6.1C287.9,88.3,292.7,88.6,296.7,90.5z"/>
		<path d="M283.6,117.8c1.7-0.6,3.1,0.6,3,2.7c0,2.1-1.2,3.9-3.1,4.8c-1.7,0.6-3.1-0.6-3-2.7C280.5,120.5,281.7,118.7,283.6,117.8z"/>
		<path class="st10_sad-face-52" d="M280.5,156.1l-12.5-6.1c-6.6-3.2-10.8-10.8-10.8-21.2c0.1-16.7,11.5-34,25.4-38.7l12.5,6.1&#10;&#9;&#9;&#9;c-13.9,4.7-25.2,22.1-25.4,38.7C269.7,145.3,274,153,280.5,156.1z"/>
		<path class="st11_sad-face-52" d="M295.2,96.2c13.9-4.7,25,5,24.9,21.6s-11.5,34-25.4,38.7s-25-5-24.9-21.6S281.3,100.9,295.2,96.2z&#10;&#9;&#9;&#9; M305.4,138.3c0.9-0.3,1.5-1.2,1.5-2.2c0-7.6-4.5-12-10.9-10.4l-0.9,0.3c-6.6,2.2-11,10.2-11.6,18c-0.1,1.1,0.6,1.5,1.3,1.2&#10;&#9;&#9;&#9;c0.9-0.4,1.5-1.2,1.6-2.2c0.5-6,3.8-11.9,8.7-13.6c0.2-0.1,0.5-0.2,0.8-0.2c4.7-1.2,7.9,2.3,8,7.8&#10;&#9;&#9;&#9;C304,138.2,304.7,138.5,305.4,138.3 M305.6,117.7c1.9-0.8,3.1-2.7,3.1-4.8c0-2-1.4-3.2-3-2.7c-1.9,0.8-3.1,2.7-3.1,4.8&#10;&#9;&#9;&#9;C302.6,117,303.9,118.3,305.6,117.7 M280.5,122.5c0,2,1.3,3.2,3,2.7c1.9-0.8,3.1-2.7,3.1-4.8c0-2-1.4-3.2-3-2.7&#10;&#9;&#9;&#9;C281.8,118.6,280.6,120.5,280.5,122.5"/>
	</g>
	<path class="st7_sad-face-52" d="M254.8,143.1c-5.6,2.7-13.7,6.7-20.4,11.7c-8.2,7-16.4,16.7-8.3,24.9c9,9.1,33.3-16.4,40.1-23.9&#10;&#9;&#9;C264.1,150.4,259.9,146.2,254.8,143.1z"/>
	<path class="st8_sad-face-52" d="M258.7,145.8l2.1-7.1c0,0-0.7-7.3,0-7.5s2.8,6.6,2.8,6.6s3.9-8.5,5.6-7.7s4,7.4,4.2,8.6s-10.8,11-10.8,11"/>
</g>
</svg>