<svg xmlns="http://www.w3.org/2000/svg" width="367" height="200" viewBox="0 0 367 200">
<g>
<!-- Tree trunk -->
<path d="M 165.00 200.00 L 165.00 140.00 C165.00,135.50 167.50,132.00 172.00,130.50 L 175.00 129.50 L 178.50 130.20 C185.20,131.80 190.00,135.40 195.00,140.00 L 202.00 200.00 C202.00,200.00 195.50,200.00 183.50,200.00 C175.20,200.00 165.00,200.00 165.00,200.00 Z" fill="rgba(101,67,33,1)"/>

<!-- Main tree canopy -->
<path d="M 95.50 145.20 C88.30,142.80 82.15,128.45 81.22,118.84 C80.45,110.89 82.87,105.03 87.17,98.44 L 90.07 94.21 L 97.78 96.70 C107.15,99.62 123.03,108.05 132.95,115.26 C144.08,123.38 150.00,129.06 150.00,131.66 C150.00,135.40 138.75,146.00 130.49,150.08 C123.23,153.67 119.80,154.21 109.88,154.58 C102.72,154.82 96.53,154.59 95.50,145.20 Z" fill="rgba(77,49,130,1)"/>

<!-- Left branch canopy -->
<path d="M 45.46 125.91 C35.83,115.04 18.92,104.42 5.13,100.95 L 0.76 99.86 L 1.32 95.68 C2.55,86.49 10.05,84.65 22.61,90.46 C29.25,93.52 30.15,93.72 30.61,92.21 C32.41,86.24 34.77,81.48 36.06,81.23 C38.15,80.82 52.00,89.87 52.00,91.63 C52.00,92.43 49.99,95.23 47.53,97.86 L 43.07,102.63 L 47.61,106.43 C56.95,114.24 60.12,121.53 56.44,126.78 C53.97,130.31 50.93,129.52 45.46,125.91" fill="rgba(77,49,130,1)"/>

<!-- Right branch canopy -->
<path d="M 285.46 135.91 C275.83,125.04 258.92,114.42 245.13,110.95 L 240.76 109.86 L 241.32 105.68 C242.55,96.49 250.05,94.65 262.61,100.46 C269.25,103.52 270.15,103.72 270.61,102.21 C272.41,96.24 274.77,91.48 276.06,91.23 C278.15,90.82 292.00,99.87 292.00,101.63 C292.00,102.43 289.99,105.23 287.53,107.86 L 283.07,112.63 L 287.61,116.43 C296.95,124.24 300.12,131.53 296.44,136.78 C293.97,140.31 290.93,139.52 285.46,135.91" fill="rgba(77,49,130,1)"/>

<!-- Upper canopy layer -->
<path d="M 135.50 105.20 C128.30,102.80 122.15,88.45 121.22,78.84 C120.45,70.89 122.87,65.03 127.17,58.44 L 130.07 54.21 L 137.78 56.70 C147.15,59.62 163.03,68.05 172.95,75.26 C184.08,83.38 190.00,89.06 190.00,91.66 C190.00,95.40 178.75,106.00 170.49,110.08 C163.23,113.67 159.80,114.21 149.88,114.58 C142.72,114.82 136.53,114.59 135.50,105.20 Z" fill="rgba(77,49,130,1)"/>

<!-- Top small canopy -->
<path d="M 155.50 65.20 C150.30,63.80 146.15,53.45 145.72,47.84 C145.35,42.89 146.87,39.03 149.17,35.44 L 151.07 32.21 L 156.78 33.70 C162.15,35.62 172.03,41.05 177.95,46.26 C184.08,52.38 188.00,56.06 188.00,57.66 C188.00,59.40 181.75,66.00 177.49,68.08 C173.23,69.67 171.80,70.21 166.88,70.58 C162.72,70.82 156.53,70.59 155.50,65.20 Z" fill="rgba(77,49,130,1)"/>
</g>
</svg>
