<svg width="1000" height="600" viewBox="0 0 1000 600" xmlns="http://www.w3.org/2000/svg">
  <defs>
    <!-- Sky gradient -->
    <linearGradient id="skyGradient" x1="0%" y1="0%" x2="0%" y2="100%">
      <stop offset="0%" style="stop-color:#B8D4E3;stop-opacity:1" />
      <stop offset="100%" style="stop-color:#E8F4F8;stop-opacity:1" />
    </linearGradient>

    <!-- Ground gradient -->
    <linearGradient id="groundGradient" x1="0%" y1="0%" x2="0%" y2="100%">
      <stop offset="0%" style="stop-color:#8B7355;stop-opacity:1" />
      <stop offset="100%" style="stop-color:#6B5B47;stop-opacity:1" />
    </linearGradient>
  </defs>

  <!-- Sky background -->
  <rect width="1000" height="400" fill="url(#skyGradient)"/>

  <!-- Ground -->
  <rect x="0" y="400" width="1000" height="200" fill="url(#groundGradient)"/>

  <!-- Large sun -->
  <circle cx="450" cy="150" r="80" fill="#F4D03F" opacity="0.9"/>

  <!-- Fluffy clouds -->
  <g fill="white" opacity="0.9">
    <!-- Cloud 1 -->
    <circle cx="150" cy="80" r="25"/>
    <circle cx="170" cy="75" r="30"/>
    <circle cx="190" cy="80" r="25"/>
    <circle cx="210" cy="85" r="20"/>

    <!-- Cloud 2 -->
    <circle cx="320" cy="60" r="20"/>
    <circle cx="335" cy="55" r="25"/>
    <circle cx="350" cy="60" r="20"/>

    <!-- Cloud 3 -->
    <circle cx="600" cy="90" r="30"/>
    <circle cx="625" cy="85" r="35"/>
    <circle cx="650" cy="90" r="30"/>
    <circle cx="675" cy="95" r="25"/>

    <!-- Cloud 4 -->
    <circle cx="780" cy="70" r="25"/>
    <circle cx="800" cy="65" r="30"/>
    <circle cx="820" cy="70" r="25"/>

    <!-- Cloud 5 (partially covering sun) -->
    <circle cx="520" cy="120" r="35"/>
    <circle cx="545" cy="115" r="40"/>
    <circle cx="570" cy="120" r="35"/>
  </g>

  <!-- Background mountains/hills -->
  <g fill="#A8C8D8" opacity="0.6">
    <ellipse cx="200" cy="350" rx="120" ry="80"/>
    <ellipse cx="400" cy="340" rx="100" ry="70"/>
    <ellipse cx="600" cy="360" rx="140" ry="90"/>
    <ellipse cx="800" cy="350" rx="110" ry="75"/>
  </g>

  <!-- Background trees -->
  <g>
    <!-- Far background trees -->
    <circle cx="100" cy="380" r="25" fill="#7FB069"/>
    <circle cx="150" cy="375" r="30" fill="#6B9B47"/>
    <circle cx="200" cy="385" r="20" fill="#7FB069"/>
    <circle cx="850" cy="380" r="28" fill="#6B9B47"/>
    <circle cx="900" cy="375" r="35" fill="#7FB069"/>
    <circle cx="950" cy="385" r="25" fill="#6B9B47"/>
  </g>

  <!-- Buildings row -->
  <g>
    <!-- Small house 1 (far left) -->
    <rect x="50" y="450" width="40" height="40" fill="#D2691E"/>
    <polygon points="45,450 70,430 95,450" fill="#8B4513"/>
    <rect x="60" y="470" width="8" height="20" fill="#654321"/>
    <rect x="75" y="460" width="8" height="8" fill="#FFE4B5"/>
    <rect x="75" y="475" width="8" height="8" fill="#FFE4B5"/>

    <!-- Apartment building 1 -->
    <rect x="110" y="420" width="50" height="70" fill="#F4A460"/>
    <rect x="105" y="415" width="60" height="5" fill="#8B4513"/>
    <!-- Windows grid -->
    <rect x="118" y="430" width="8" height="8" fill="#FFE4B5"/>
    <rect x="130" y="430" width="8" height="8" fill="#FFE4B5"/>
    <rect x="142" y="430" width="8" height="8" fill="#FFE4B5"/>
    <rect x="118" y="445" width="8" height="8" fill="#FFE4B5"/>
    <rect x="130" y="445" width="8" height="8" fill="#FFE4B5"/>
    <rect x="142" y="445" width="8" height="8" fill="#FFE4B5"/>
    <rect x="118" y="460" width="8" height="8" fill="#FFE4B5"/>
    <rect x="130" y="460" width="8" height="8" fill="#FFE4B5"/>
    <rect x="142" y="460" width="8" height="8" fill="#FFE4B5"/>
    <rect x="125" y="475" width="10" height="15" fill="#654321"/>

    <!-- Tree 1 -->
    <rect x="175" y="470" width="6" height="20" fill="#8B4513"/>
    <circle cx="178" cy="465" r="15" fill="#7FB069"/>

    <!-- Orange apartment building -->
    <rect x="200" y="400" width="60" height="90" fill="#FF8C42"/>
    <rect x="195" y="395" width="70" height="5" fill="#8B4513"/>
    <!-- Windows -->
    <rect x="210" y="415" width="10" height="10" fill="#FFE4B5"/>
    <rect x="225" y="415" width="10" height="10" fill="#FFE4B5"/>
    <rect x="240" y="415" width="10" height="10" fill="#FFE4B5"/>
    <rect x="210" y="435" width="10" height="10" fill="#FFE4B5"/>
    <rect x="225" y="435" width="10" height="10" fill="#FFE4B5"/>
    <rect x="240" y="435" width="10" height="10" fill="#FFE4B5"/>
    <rect x="210" y="455" width="10" height="10" fill="#FFE4B5"/>
    <rect x="225" y="455" width="10" height="10" fill="#FFE4B5"/>
    <rect x="240" y="455" width="10" height="10" fill="#FFE4B5"/>
    <rect x="220" y="470" width="15" height="20" fill="#654321"/>

    <!-- Tree 2 -->
    <circle cx="280" cy="465" r="18" fill="#6B9B47"/>
    <rect x="277" y="470" width="6" height="20" fill="#8B4513"/>

    <!-- Gray house with green roof -->
    <rect x="300" y="440" width="45" height="50" fill="#A9A9A9"/>
    <polygon points="295,440 322.5,415 350,440" fill="#7FB069"/>
    <rect x="315" y="465" width="10" height="25" fill="#654321"/>
    <rect x="308" y="450" width="8" height="8" fill="#FFE4B5"/>
    <rect x="330" y="450" width="8" height="8" fill="#FFE4B5"/>

    <!-- Tall building with chimney -->
    <rect x="360" y="380" width="50" height="110" fill="#8B7D6B"/>
    <rect x="355" y="375" width="60" height="5" fill="#654321"/>
    <rect x="385" y="365" width="8" height="15" fill="#654321"/>
    <!-- Windows -->
    <rect x="370" y="395" width="8" height="8" fill="#FFE4B5"/>
    <rect x="385" y="395" width="8" height="8" fill="#FFE4B5"/>
    <rect x="370" y="415" width="8" height="8" fill="#FFE4B5"/>
    <rect x="385" y="415" width="8" height="8" fill="#FFE4B5"/>
    <rect x="370" y="435" width="8" height="8" fill="#FFE4B5"/>
    <rect x="385" y="435" width="8" height="8" fill="#FFE4B5"/>
    <rect x="370" y="455" width="8" height="8" fill="#FFE4B5"/>
    <rect x="385" y="455" width="8" height="8" fill="#FFE4B5"/>
    <rect x="375" y="470" width="10" height="20" fill="#654321"/>

    <!-- Tree 3 -->
    <circle cx="430" cy="460" r="20" fill="#7FB069"/>
    <rect x="427" y="470" width="6" height="20" fill="#8B4513"/>

    <!-- Large gray apartment building -->
    <rect x="450" y="360" width="80" height="130" fill="#B8B8B8"/>
    <rect x="445" y="355" width="90" height="5" fill="#654321"/>
    <!-- Window grid -->
    <rect x="465" y="375" width="12" height="12" fill="#FFE4B5"/>
    <rect x="485" y="375" width="12" height="12" fill="#FFE4B5"/>
    <rect x="505" y="375" width="12" height="12" fill="#FFE4B5"/>
    <rect x="465" y="395" width="12" height="12" fill="#FFE4B5"/>
    <rect x="485" y="395" width="12" height="12" fill="#FFE4B5"/>
    <rect x="505" y="395" width="12" height="12" fill="#FFE4B5"/>
    <rect x="465" y="415" width="12" height="12" fill="#FFE4B5"/>
    <rect x="485" y="415" width="12" height="12" fill="#FFE4B5"/>
    <rect x="505" y="415" width="12" height="12" fill="#FFE4B5"/>
    <rect x="465" y="435" width="12" height="12" fill="#FFE4B5"/>
    <rect x="485" y="435" width="12" height="12" fill="#FFE4B5"/>
    <rect x="505" y="435" width="12" height="12" fill="#FFE4B5"/>
    <rect x="465" y="455" width="12" height="12" fill="#FFE4B5"/>
    <rect x="485" y="455" width="12" height="12" fill="#FFE4B5"/>
    <rect x="505" y="455" width="12" height="12" fill="#FFE4B5"/>
    <rect x="480" y="470" width="15" height="20" fill="#654321"/>

    <!-- Tall dark building -->
    <rect x="550" y="340" width="60" height="150" fill="#4A4A4A"/>
    <rect x="545" y="335" width="70" height="5" fill="#654321"/>
    <!-- Windows -->
    <rect x="565" y="355" width="10" height="10" fill="#FFE4B5"/>
    <rect x="580" y="355" width="10" height="10" fill="#FFE4B5"/>
    <rect x="595" y="355" width="10" height="10" fill="#FFE4B5"/>
    <rect x="565" y="375" width="10" height="10" fill="#FFE4B5"/>
    <rect x="580" y="375" width="10" height="10" fill="#FFE4B5"/>
    <rect x="595" y="375" width="10" height="10" fill="#FFE4B5"/>
    <rect x="565" y="395" width="10" height="10" fill="#FFE4B5"/>
    <rect x="580" y="395" width="10" height="10" fill="#FFE4B5"/>
    <rect x="595" y="395" width="10" height="10" fill="#FFE4B5"/>
    <rect x="565" y="415" width="10" height="10" fill="#FFE4B5"/>
    <rect x="580" y="415" width="10" height="10" fill="#FFE4B5"/>
    <rect x="595" y="415" width="10" height="10" fill="#FFE4B5"/>
    <rect x="565" y="435" width="10" height="10" fill="#FFE4B5"/>
    <rect x="580" y="435" width="10" height="10" fill="#FFE4B5"/>
    <rect x="595" y="435" width="10" height="10" fill="#FFE4B5"/>
    <rect x="565" y="455" width="10" height="10" fill="#FFE4B5"/>
    <rect x="580" y="455" width="10" height="10" fill="#FFE4B5"/>
    <rect x="595" y="455" width="10" height="10" fill="#FFE4B5"/>
    <rect x="575" y="470" width="15" height="20" fill="#654321"/>

    <!-- Tree 4 -->
    <circle cx="630" cy="465" r="18" fill="#6B9B47"/>
    <rect x="627" y="470" width="6" height="20" fill="#8B4513"/>

    <!-- Small house 2 -->
    <rect x="650" y="450" width="40" height="40" fill="#CD853F"/>
    <polygon points="645,450 670,430 695,450" fill="#8B4513"/>
    <rect x="660" y="470" width="8" height="20" fill="#654321"/>
    <rect x="675" y="460" width="8" height="8" fill="#FFE4B5"/>
    <rect x="675" y="475" width="8" height="8" fill="#FFE4B5"/>

    <!-- Tree 5 -->
    <circle cx="710" cy="460" r="22" fill="#7FB069"/>
    <rect x="707" y="470" width="6" height="20" fill="#8B4513"/>

    <!-- Final apartment building -->
    <rect x="730" y="410" width="55" height="80" fill="#DEB887"/>
    <rect x="725" y="405" width="65" height="5" fill="#8B4513"/>
    <!-- Windows -->
    <rect x="740" y="425" width="10" height="10" fill="#FFE4B5"/>
    <rect x="755" y="425" width="10" height="10" fill="#FFE4B5"/>
    <rect x="770" y="425" width="10" height="10" fill="#FFE4B5"/>
    <rect x="740" y="445" width="10" height="10" fill="#FFE4B5"/>
    <rect x="755" y="445" width="10" height="10" fill="#FFE4B5"/>
    <rect x="770" y="445" width="10" height="10" fill="#FFE4B5"/>
    <rect x="740" y="465" width="10" height="10" fill="#FFE4B5"/>
    <rect x="755" y="465" width="10" height="10" fill="#FFE4B5"/>
    <rect x="770" y="465" width="10" height="10" fill="#FFE4B5"/>
    <rect x="750" y="475" width="12" height="15" fill="#654321"/>

    <!-- Small house 3 (far right) -->
    <rect x="800" y="455" width="35" height="35" fill="#F4A460"/>
    <polygon points="795,455 817.5,440 840,455" fill="#8B4513"/>
    <rect x="810" y="470" width="7" height="20" fill="#654321"/>
    <rect x="820" y="465" width="7" height="7" fill="#FFE4B5"/>

    <!-- Tree 6 -->
    <circle cx="860" cy="465" r="20" fill="#6B9B47"/>
    <rect x="857" y="470" width="6" height="20" fill="#8B4513"/>

    <!-- Final small house -->
    <rect x="880" y="460" width="30" height="30" fill="#D2691E"/>
    <polygon points="875,460 895,445 915,460" fill="#8B4513"/>
    <rect x="888" y="475" width="6" height="15" fill="#654321"/>
    <rect x="898" y="470" width="6" height="6" fill="#FFE4B5"/>

    <!-- Tree 7 -->
    <circle cx="930" cy="470" r="15" fill="#7FB069"/>
    <rect x="927" y="475" width="6" height="15" fill="#8B4513"/>
  </g>

  <!-- Street lamps -->
  <g>
    <rect x="320" y="480" width="3" height="15" fill="#4A4A4A"/>
    <circle cx="321.5" cy="478" r="4" fill="#F4D03F"/>

    <rect x="580" y="480" width="3" height="15" fill="#4A4A4A"/>
    <circle cx="581.5" cy="478" r="4" fill="#F4D03F"/>
  </g>
</svg>
