<svg width="340" height="210" viewBox="0 0 340 210" xmlns="http://www.w3.org/2000/svg">
  <!-- Blog Website Wireframe -->
  <defs>
    <pattern id="blogDots" patternUnits="userSpaceOnUse" width="4" height="4">
      <circle cx="2" cy="2" r="0.5" fill="#9ca3af"/>
    </pattern>
  </defs>
  
  <!-- Background -->
  <rect width="340" height="210" fill="#ffffff"/>
  
  <!-- Header -->
  <rect x="0" y="0" width="340" height="40" fill="#ffffff" stroke="#f3f4f6" stroke-width="1"/>
  
  <!-- Blog Title -->
  <rect x="15" y="15" width="100" height="10" fill="#374151" rx="2"/>
  
  <!-- Navigation -->
  <rect x="200" y="16" width="25" height="8" fill="#9ca3af" rx="1"/>
  <rect x="235" y="16" width="30" height="8" fill="#9ca3af" rx="1"/>
  <rect x="275" y="16" width="35" height="8" fill="#9ca3af" rx="1"/>
  <rect x="320" y="16" width="15" height="8" fill="#412683" rx="1"/>
  
  <!-- Main Content Area -->
  <rect x="15" y="55" width="220" height="140" fill="#ffffff"/>
  
  <!-- Featured Article -->
  <rect x="15" y="55" width="220" height="80" fill="#f8fafc" stroke="#e5e7eb" stroke-width="1" rx="4"/>
  <rect x="25" y="65" width="200" height="35" fill="url(#blogDots)" rx="2"/>
  <rect x="25" y="108" width="120" height="8" fill="#374151" rx="2"/>
  <rect x="25" y="120" width="180" height="4" fill="#6b7280" rx="1"/>
  <rect x="25" y="127" width="150" height="4" fill="#6b7280" rx="1"/>
  
  <!-- Article List -->
  <g>
    <!-- Article 1 -->
    <rect x="15" y="145" width="220" height="20" fill="#ffffff" stroke="#f3f4f6" stroke-width="1"/>
    <rect x="20" y="150" width="30" height="10" fill="url(#blogDots)" rx="1"/>
    <rect x="60" y="150" width="80" height="5" fill="#374151" rx="1"/>
    <rect x="60" y="157" width="120" height="3" fill="#9ca3af" rx="1"/>
    <rect x="190" y="152" width="25" height="3" fill="#9ca3af" rx="1"/>
    
    <!-- Article 2 -->
    <rect x="15" y="170" width="220" height="20" fill="#ffffff" stroke="#f3f4f6" stroke-width="1"/>
    <rect x="20" y="175" width="30" height="10" fill="url(#blogDots)" rx="1"/>
    <rect x="60" y="175" width="90" height="5" fill="#374151" rx="1"/>
    <rect x="60" y="182" width="110" height="3" fill="#9ca3af" rx="1"/>
    <rect x="190" y="177" width="30" height="3" fill="#9ca3af" rx="1"/>
  </g>
  
  <!-- Sidebar -->
  <rect x="245" y="55" width="80" height="140" fill="#f8fafc" stroke="#e5e7eb" stroke-width="1" rx="4"/>
  
  <!-- About Section -->
  <rect x="255" y="70" width="40" height="6" fill="#374151" rx="1"/>
  <rect x="255" y="80" width="60" height="3" fill="#6b7280" rx="1"/>
  <rect x="255" y="86" width="55" height="3" fill="#6b7280" rx="1"/>
  <rect x="255" y="92" width="50" height="3" fill="#6b7280" rx="1"/>
  
  <!-- Categories -->
  <rect x="255" y="110" width="45" height="6" fill="#374151" rx="1"/>
  <rect x="255" y="122" width="35" height="4" fill="#9ca3af" rx="1"/>
  <rect x="255" y="130" width="40" height="4" fill="#9ca3af" rx="1"/>
  <rect x="255" y="138" width="30" height="4" fill="#9ca3af" rx="1"/>
  <rect x="255" y="146" width="38" height="4" fill="#9ca3af" rx="1"/>
  
  <!-- Recent Posts -->
  <rect x="255" y="165" width="50" height="6" fill="#374151" rx="1"/>
  <rect x="255" y="175" width="60" height="3" fill="#9ca3af" rx="1"/>
  <rect x="255" y="180" width="55" height="3" fill="#9ca3af" rx="1"/>
</svg>
