<svg width="340" height="210" viewBox="0 0 340 210" xmlns="http://www.w3.org/2000/svg">
  <!-- Dashboard Website Wireframe -->
  <defs>
    <pattern id="dashboardDots" patternUnits="userSpaceOnUse" width="3" height="3">
      <circle cx="1.5" cy="1.5" r="0.3" fill="#d1d5db"/>
    </pattern>
  </defs>
  
  <!-- Background -->
  <rect width="340" height="210" fill="#f8fafc"/>
  
  <!-- Sidebar -->
  <rect x="0" y="0" width="60" height="210" fill="#374151"/>
  
  <!-- Sidebar items -->
  <rect x="10" y="15" width="40" height="8" fill="#6b7280" rx="2"/>
  <rect x="10" y="30" width="35" height="6" fill="#9ca3af" rx="1"/>
  <rect x="10" y="42" width="38" height="6" fill="#9ca3af" rx="1"/>
  <rect x="10" y="54" width="32" height="6" fill="#9ca3af" rx="1"/>
  <rect x="10" y="66" width="40" height="6" fill="#412683" rx="1"/>
  <rect x="10" y="78" width="36" height="6" fill="#9ca3af" rx="1"/>
  
  <!-- Main Content Area -->
  <rect x="60" y="0" width="280" height="210" fill="#ffffff"/>
  
  <!-- Top Bar -->
  <rect x="60" y="0" width="280" height="35" fill="#ffffff" stroke="#e5e7eb" stroke-width="1"/>
  <rect x="75" y="12" width="80" height="10" fill="#374151" rx="2"/>
  <rect x="280" y="10" width="25" height="15" fill="#f3f4f6" stroke="#d1d5db" stroke-width="1" rx="8"/>
  <circle cx="292" cy="17" r="6" fill="#d1d5db"/>
  
  <!-- Stats Cards -->
  <g>
    <!-- Card 1 -->
    <rect x="75" y="50" width="60" height="40" fill="#ffffff" stroke="#e5e7eb" stroke-width="1" rx="4"/>
    <rect x="80" y="58" width="30" height="6" fill="#6b7280" rx="1"/>
    <rect x="80" y="68" width="20" height="8" fill="#374151" rx="1"/>
    <rect x="80" y="80" width="15" height="4" fill="#10b981" rx="1"/>
    
    <!-- Card 2 -->
    <rect x="145" y="50" width="60" height="40" fill="#ffffff" stroke="#e5e7eb" stroke-width="1" rx="4"/>
    <rect x="150" y="58" width="35" height="6" fill="#6b7280" rx="1"/>
    <rect x="150" y="68" width="25" height="8" fill="#374151" rx="1"/>
    <rect x="150" y="80" width="18" height="4" fill="#ef4444" rx="1"/>
    
    <!-- Card 3 -->
    <rect x="215" y="50" width="60" height="40" fill="#ffffff" stroke="#e5e7eb" stroke-width="1" rx="4"/>
    <rect x="220" y="58" width="28" height="6" fill="#6b7280" rx="1"/>
    <rect x="220" y="68" width="22" height="8" fill="#374151" rx="1"/>
    <rect x="220" y="80" width="20" height="4" fill="#3b82f6" rx="1"/>
    
    <!-- Card 4 -->
    <rect x="285" y="50" width="50" height="40" fill="#ffffff" stroke="#e5e7eb" stroke-width="1" rx="4"/>
    <rect x="290" y="58" width="25" height="6" fill="#6b7280" rx="1"/>
    <rect x="290" y="68" width="18" height="8" fill="#374151" rx="1"/>
    <rect x="290" y="80" width="12" height="4" fill="#f59e0b" rx="1"/>
  </g>
  
  <!-- Chart Area -->
  <rect x="75" y="105" width="130" height="80" fill="#ffffff" stroke="#e5e7eb" stroke-width="1" rx="4"/>
  <rect x="80" y="115" width="60" height="6" fill="#374151" rx="1"/>
  
  <!-- Chart placeholder -->
  <g stroke="#d1d5db" stroke-width="1" fill="none">
    <path d="M 85 170 L 95 160 L 105 165 L 115 150 L 125 155 L 135 145 L 145 140 L 155 135 L 165 130 L 175 125 L 185 120 L 195 125"/>
  </g>
  <circle cx="85" cy="170" r="2" fill="#412683"/>
  <circle cx="105" cy="165" r="2" fill="#412683"/>
  <circle cx="125" cy="155" r="2" fill="#412683"/>
  <circle cx="145" cy="140" r="2" fill="#412683"/>
  <circle cx="165" cy="130" r="2" fill="#412683"/>
  <circle cx="185" cy="120" r="2" fill="#412683"/>
  <circle cx="195" cy="125" r="2" fill="#412683"/>
  
  <!-- Activity Feed -->
  <rect x="215" y="105" width="120" height="80" fill="#ffffff" stroke="#e5e7eb" stroke-width="1" rx="4"/>
  <rect x="220" y="115" width="50" height="6" fill="#374151" rx="1"/>
  
  <!-- Activity items -->
  <circle cx="228" cy="135" r="3" fill="#10b981"/>
  <rect x="238" y="132" width="80" height="4" fill="#6b7280" rx="1"/>
  <rect x="238" y="138" width="60" height="3" fill="#9ca3af" rx="1"/>
  
  <circle cx="228" cy="150" r="3" fill="#3b82f6"/>
  <rect x="238" y="147" width="75" height="4" fill="#6b7280" rx="1"/>
  <rect x="238" y="153" width="55" height="3" fill="#9ca3af" rx="1"/>
  
  <circle cx="228" cy="165" r="3" fill="#f59e0b"/>
  <rect x="238" y="162" width="70" height="4" fill="#6b7280" rx="1"/>
  <rect x="238" y="168" width="50" height="3" fill="#9ca3af" rx="1"/>
</svg>
