<svg width="340" height="210" viewBox="0 0 340 210" xmlns="http://www.w3.org/2000/svg">
  <!-- Job Board Website Wireframe (Indeed-style) -->
  <defs>
    <pattern id="jobDots" patternUnits="userSpaceOnUse" width="4" height="4">
      <circle cx="2" cy="2" r="0.5" fill="#9ca3af"/>
    </pattern>
  </defs>
  
  <!-- Background -->
  <rect width="340" height="210" fill="#ffffff"/>
  
  <!-- Header -->
  <rect x="0" y="0" width="340" height="40" fill="#ffffff" stroke="#e5e7eb" stroke-width="1"/>
  
  <!-- Logo -->
  <rect x="15" y="12" width="60" height="16" fill="#2563eb" rx="2"/>
  <text x="45" y="23" fill="white" font-family="Arial, sans-serif" font-size="8" text-anchor="middle" font-weight="bold">JobFind</text>
  
  <!-- Search Bar -->
  <rect x="90" y="10" width="120" height="20" fill="#f8fafc" stroke="#d1d5db" stroke-width="1" rx="4"/>
  <text x="95" y="22" fill="#9ca3af" font-family="Arial, sans-serif" font-size="7">Job title, keywords...</text>
  
  <!-- Location Input -->
  <rect x="220" y="10" width="80" height="20" fill="#f8fafc" stroke="#d1d5db" stroke-width="1" rx="4"/>
  <text x="225" y="22" fill="#9ca3af" font-family="Arial, sans-serif" font-size="7">City, state...</text>
  
  <!-- Search Button -->
  <rect x="310" y="10" width="25" height="20" fill="#412683" rx="4"/>
  <text x="322" y="22" fill="white" font-family="Arial, sans-serif" font-size="7" text-anchor="middle">Find</text>
  
  <!-- Filters Bar -->
  <rect x="15" y="50" width="310" height="25" fill="#f8fafc" stroke="#e5e7eb" stroke-width="1" rx="2"/>
  <rect x="25" y="57" width="40" height="12" fill="#ffffff" stroke="#d1d5db" stroke-width="1" rx="6"/>
  <text x="45" y="65" fill="#374151" font-family="Arial, sans-serif" font-size="6" text-anchor="middle">Full-time</text>
  <rect x="75" y="57" width="35" height="12" fill="#ffffff" stroke="#d1d5db" stroke-width="1" rx="6"/>
  <text x="92" y="65" fill="#374151" font-family="Arial, sans-serif" font-size="6" text-anchor="middle">Remote</text>
  <rect x="120" y="57" width="45" height="12" fill="#ffffff" stroke="#d1d5db" stroke-width="1" rx="6"/>
  <text x="142" y="65" fill="#374151" font-family="Arial, sans-serif" font-size="6" text-anchor="middle">Entry Level</text>
  
  <!-- Results Count -->
  <text x="15" y="90" fill="#6b7280" font-family="Arial, sans-serif" font-size="8">1,247 jobs found</text>
  
  <!-- Job Listings -->
  <g>
    <!-- Job 1 -->
    <rect x="15" y="100" width="310" height="35" fill="#ffffff" stroke="#e5e7eb" stroke-width="1" rx="4"/>
    <rect x="25" y="108" width="120" height="8" fill="#374151" rx="1"/>
    <text x="25" y="116" fill="#374151" font-family="Arial, sans-serif" font-size="7" font-weight="bold">Frontend Developer</text>
    <rect x="25" y="120" width="80" height="5" fill="#6b7280" rx="1"/>
    <text x="25" y="127" fill="#6b7280" font-family="Arial, sans-serif" font-size="6">Tech Company Inc.</text>
    <rect x="250" y="108" width="60" height="6" fill="#10b981" rx="1"/>
    <text x="280" y="114" fill="#10b981" font-family="Arial, sans-serif" font-size="6" text-anchor="middle">$70k - $90k</text>
    <rect x="250" y="118" width="40" height="5" fill="#9ca3af" rx="1"/>
    <text x="270" y="124" fill="#9ca3af" font-family="Arial, sans-serif" font-size="5" text-anchor="middle">San Francisco</text>
    <circle cx="300" cy="125" r="3" fill="#fbbf24"/>
    
    <!-- Job 2 -->
    <rect x="15" y="140" width="310" height="35" fill="#ffffff" stroke="#e5e7eb" stroke-width="1" rx="4"/>
    <rect x="25" y="148" width="100" height="8" fill="#374151" rx="1"/>
    <text x="25" y="156" fill="#374151" font-family="Arial, sans-serif" font-size="7" font-weight="bold">UX Designer</text>
    <rect x="25" y="160" width="70" height="5" fill="#6b7280" rx="1"/>
    <text x="25" y="167" fill="#6b7280" font-family="Arial, sans-serif" font-size="6">Design Studio</text>
    <rect x="250" y="148" width="55" height="6" fill="#10b981" rx="1"/>
    <text x="277" y="154" fill="#10b981" font-family="Arial, sans-serif" font-size="6" text-anchor="middle">$60k - $80k</text>
    <rect x="250" y="158" width="35" height="5" fill="#9ca3af" rx="1"/>
    <text x="267" y="164" fill="#9ca3af" font-family="Arial, sans-serif" font-size="5" text-anchor="middle">Remote</text>
    <circle cx="300" cy="165" r="3" fill="#d1d5db"/>
    
    <!-- Job 3 -->
    <rect x="15" y="180" width="310" height="25" fill="#ffffff" stroke="#e5e7eb" stroke-width="1" rx="4"/>
    <rect x="25" y="186" width="110" height="6" fill="#374151" rx="1"/>
    <text x="25" y="193" fill="#374151" font-family="Arial, sans-serif" font-size="6" font-weight="bold">Product Manager</text>
    <rect x="25" y="196" width="75" height="4" fill="#6b7280" rx="1"/>
    <text x="25" y="201" fill="#6b7280" font-family="Arial, sans-serif" font-size="5">Startup Co.</text>
    <rect x="250" y="186" width="50" height="5" fill="#10b981" rx="1"/>
    <text x="275" y="191" fill="#10b981" font-family="Arial, sans-serif" font-size="5" text-anchor="middle">$80k - $120k</text>
    <rect x="250" y="194" width="30" height="4" fill="#9ca3af" rx="1"/>
    <text x="265" y="198" fill="#9ca3af" font-family="Arial, sans-serif" font-size="4" text-anchor="middle">New York</text>
  </g>
</svg>
