<svg id="Layer_2" data-name="Layer 2" xmlns="http://www.w3.org/2000/svg" viewBox="0 0 472.75 106.53">
  <defs>
    <style>
      .cls-1 {
        fill: #000;
        stroke-width: 0px;
      }
    </style>
  </defs>
  <g id="Layer_1-2" data-name="Layer 1">
    <g>
      <path class="cls-1" d="M175.6,70.03v3.57h-51.4c1.04,10.57,8.79,16.69,19.37,16.69,9.83,0,16.69-5.51,20.56-9.39l9.24,13.26c-6.11,5.66-15.35,12.36-29.8,12.36-22.5,0-37.1-14.6-37.1-36.5s14.15-36.81,35.75-36.81,33.38,13.26,33.38,36.81M124.65,61.83h32.48c-.6-8.79-6.85-13.86-15.79-13.86s-15.2,4.32-16.69,13.86"/>
      <path class="cls-1" d="M213.19,50.8v28.9c0,5.52,1.93,7.75,7.3,7.75h3.13v16.99h-8.05c-12.97,0-20.71-6.56-20.71-20.41v-33.23h-12.67v-15.34h12.67V15.46h18.33v19.99h14.15v15.34h-14.15Z"/>
      <path class="cls-1" d="M259.29,45.29h.3c4.77-7.6,12.22-12.07,22.35-12.07,14.9,0,25.92,8.34,25.92,28.61v42.46h-18.32v-38.14c0-11.17-5.22-15.94-14.3-15.94s-15.94,5.51-15.94,20.41v33.68h-18.33V0h18.33v45.29Z"/>
      <path class="cls-1" d="M394.89,69.88c0,21.6-16.24,36.65-38.15,36.65s-38.13-15.05-38.13-36.65,16.24-36.65,38.13-36.65,38.15,15.05,38.15,36.65M337.38,69.88c0,11.77,8.2,19.37,19.36,19.37s19.23-7.6,19.23-19.37-8.05-19.37-19.23-19.37-19.36,7.6-19.36,19.37"/>
      <path class="cls-1" d="M472.75,61.83v42.46h-18.32v-38.15c0-11.17-5.21-15.94-14.16-15.94-9.39,0-16.09,5.51-16.09,20.41v33.67h-18.18V35.46h18.03v10.43h.3c4.62-7.9,12.36-12.67,22.5-12.67,14.9,0,25.92,8.34,25.92,28.61"/>
      <path class="cls-1" d="M60.67,0h-18.53L0,104.29h20.29l4.64-11.5h48.23l12.5-30.93L60.67,0ZM31.91,75.52l19.49-48.23,13.97,34.58-5.52,13.65h-27.94Z"/>
      <polygon class="cls-1" points="89 70.13 78.86 95.24 82.52 104.29 102.8 104.29 89 70.13"/>
    </g>
  </g>
</svg>