<svg
   version="1.1"
   id="svg2"
   width="377.94666"
   height="169.52"
   viewBox="0 0 377.94666 169.52"
   sodipodi:docname="albert-hein-seeklogo.eps"
   xmlns:inkscape="http://www.inkscape.org/namespaces/inkscape"
   xmlns:sodipodi="http://sodipodi.sourceforge.net/DTD/sodipodi-0.dtd"
   xmlns="http://www.w3.org/2000/svg"
   xmlns:svg="http://www.w3.org/2000/svg">
  <defs
     id="defs6" />
  <sodipodi:namedview
     id="namedview4"
     pagecolor="#ffffff"
     bordercolor="#000000"
     borderopacity="0.25"
     inkscape:showpageshadow="2"
     inkscape:pageopacity="0.0"
     inkscape:pagecheckerboard="0"
     inkscape:deskcolor="#d1d1d1" />
  <g
     id="g8"
     inkscape:groupmode="layer"
     inkscape:label="ink_ext_XXXXXX"
     transform="matrix(1.3333333,0,0,-1.3333333,0,169.52)">
    <g
       id="g10"
       transform="scale(0.1)">
      <path
         d="m 1235.56,696.285 -13.57,-51.668 h -42.36 l 60.92,192.863 h 54.61 l 60.95,-192.863 h -41.69 l -15.32,51.668 h -63.54 z m 25.36,96.547 -17.5,-66.637 h 46.81 l -19.77,66.637 h -9.54 z m 885.48,43.68 h 38.27 V 761.41 h 82.41 v 75.102 h 38.07 V 644.617 h -38.07 v 82.352 h -82.41 v -82.352 h -38.27 v 191.895 z m 370.63,-53.008 h 41.6 V 644.617 h -41.6 v 138.887 z m 95.74,0 h 39.64 l 0.25,-138.887 c 0.06,-35.629 -35.75,-61.359 -72.41,-58.07 l 0.02,31.953 c 14.47,-3.895 32.5,10.684 32.5,36.582 v 128.422 z m 88.95,0 h 37.07 V 761.41 c 36.44,47.965 95.86,20.406 95.86,-26.207 v -90.586 h -38.4 v 82.352 c 0,18.941 -10.84,27.793 -23.95,27.793 -14.63,0 -31.1,-6.797 -31.1,-27.793 v -82.352 h -39.48 v 138.887 z m -714.07,43.769 v -43.769 h 33.31 v -28.742 h -33.31 v -58.668 c 0,-30.664 23.05,-25.469 33.31,-25.016 v -26.461 c -59.56,-9.426 -72.68,12.414 -72.68,62.02 v 109.129 l 39.37,11.507 z m -159.88,-43.769 h 35.4 v -21.02 c 12.54,24.008 36.73,27.043 52.24,23.145 l -1.51,-32.461 c -34.25,7.77 -45.11,-9.492 -45.11,-41.773 v -66.778 h -40.76 l -0.26,138.887 z m 617.03,-55.008 c 0.78,15.981 -6.99,29.938 -31.13,30.688 -24.14,0.754 -34.29,-17.871 -34.92,-30.688 h 66.05 z m 34.87,-21.519 h -99.88 c 1.59,-37.625 55.57,-41.442 80.76,-28.661 l 9.78,-24.656 c -9.54,-5.961 -38.98,-9.711 -56.83,-8.945 -34.17,1.473 -67.46,24.207 -67.46,71.402 0,44.317 26.61,71.922 66.14,71.922 25.86,0 49.51,-7.351 61.8,-34.73 7.01,-15.575 5.69,-29.321 5.69,-46.332 z m -723.15,21.007 c 0.77,16.184 -6.99,30.317 -31.13,31.079 -24.14,0.761 -34.3,-18.102 -34.92,-31.079 h 66.05 z m 34.87,-21.796 h -99.89 c 1.6,-38.118 55.58,-41.981 80.78,-29.04 l 9.77,-24.964 c -9.55,-6.043 -38.98,-9.84 -56.84,-9.067 -34.17,1.488 -67.45,24.52 -67.45,72.321 0,44.886 26.61,72.851 66.14,72.851 25.86,0 49.51,-7.445 61.8,-35.176 7.01,-15.773 5.69,-29.695 5.69,-46.925 z m -270.51,9.968 c 0,-16.226 3.31,-28.008 9.92,-35.293 6.69,-7.293 15.09,-10.937 25.35,-10.937 9.4,0 17.35,3.586 23.77,10.754 6.35,7.168 9.59,19.25 9.59,36.203 0,14.945 -3.17,25.941 -9.39,32.926 -6.3,6.992 -13.91,10.511 -22.84,10.511 -10.73,0 -19.46,-3.644 -26.27,-10.937 -6.76,-7.289 -10.13,-18.344 -10.13,-33.227 z m -39.11,121.328 h 38.72 v -70.093 c 9.49,10.371 30.39,20.839 45.13,20.839 38.56,0 62.62,-30.882 62.62,-70.746 0,-34.421 -22.71,-73.98 -63.56,-73.98 -14.5,0 -34.06,7.867 -44.19,22.066 v -20.953 h -38.72 v 192.867 z m -90.88,0 h 37.96 V 644.617 h -37.96 V 837.484 Z M 110.273,851.273 c 25.915,89.868 31.707,116.778 121.188,166.027 l 426.703,234.89 c 69.293,38.14 120.738,16.2 149.844,-36.17 l 240.072,-432 c 29.51,-53.118 48.11,-102.969 31.13,-161.348 L 955.977,199.051 C 942.523,152.801 895.129,128.422 843.668,143.41 L 53.4922,373.664 C 13.2539,385.387 -8.51953,439.301 3.12891,479.691 L 110.273,851.273 v 0"
         style="fill:#000;fill-opacity:1;fill-rule:evenodd;stroke:none"
         id="path14" />
      <path
         d="m 483.363,674.902 c -24.597,-36.863 -65.164,-92.574 -110.906,-127.515 -31.219,-23.836 -68.871,-1.223 -70.25,35.851 -3.09,83.602 -4.934,156.879 3.699,222.543 4.016,30.543 40.364,41.84 66.282,20.407 46.054,-38.086 88.421,-111.184 111.175,-151.286 z M 593.48,1018.6 V 815.699 l 52.997,66.906 C 735.512,995.035 878.152,916 878.152,817.078 V 444.945 h -92.425 v 343.703 c 0,37.332 -21.016,49.161 -36.125,48.641 -27.289,-0.922 -37.489,-16.851 -61.262,-46.93 L 593.48,670.355 V 446.176 h -92.425 v 100.605 l -52.481,-58.457 c -62.898,-70.078 -182.195,-48.426 -219.351,24.219 -21.875,42.773 -22.696,90.41 -22.196,143.652 0.391,42.11 -1.367,85.774 0.453,123.828 4.489,94.118 44.102,155.641 134.997,155.969 26.988,0.098 59.695,-12.984 90.738,-41.847 24.144,-22.446 46.769,-48.172 67.84,-77.36 v 78.184 L 593.48,1018.6 v 0"
         style="fill:#ffffff;fill-opacity:1;fill-rule:evenodd;stroke:none"
         id="path16" />
      <path
         d="m 2538,840.063 c 11.34,0 20.58,-9.254 20.58,-20.594 0,-11.344 -9.24,-20.598 -20.58,-20.598 -11.35,0 -20.61,9.254 -20.61,20.598 0,11.34 9.26,20.594 20.61,20.594 v 0"
         style="fill:#000;fill-opacity:1;fill-rule:evenodd;stroke:none"
         id="path18" />
      <path
         d="m 2633.99,840.063 c 11.34,0 20.6,-9.254 20.6,-20.594 0,-11.344 -9.26,-20.598 -20.6,-20.598 -11.34,0 -20.59,9.254 -20.59,20.598 0,11.34 9.25,20.594 20.59,20.594 v 0"
         style="fill:#000;fill-opacity:1;fill-rule:evenodd;stroke:none"
         id="path20" />
    </g>
  </g>
</svg>
