<svg xmlns="http://www.w3.org/2000/svg" version="1.0" preserveAspectRatio="xMidYMid meet" viewBox="97.9 134 466.1 108.5"><g transform="translate(0.000000,377.000000) scale(0.100000,-0.100000)" fill="#000000" stroke="none"><path d="M2150 1976 c0 -316 3 -463 12 -487 30 -88 87 -125 212 -136 l76 -6 0 75 0 75 -47 6 c-35 4 -53 12 -70 32 l-23 26 0 435 0 434 -80 0 -80 0 0 -454z"></path><path d="M2560 1890 l0 -540 80 0 80 0 0 55 c0 30 3 55 6 55 4 0 24 -16 45 -35 74 -67 112 -80 229 -80 91 0 111 3 150 24 74 38 110 70 150 132 134 207 67 486 -142 596 -48 26 -62 28 -158 28 -117 0 -155 -13 -229 -80 -21 -19 -41 -35 -45 -35 -3 0 -6 95 -6 210 l0 210 -80 0 -80 0 0 -540z m465 79 c96 -27 163 -107 172 -207 7 -76 -10 -135 -54 -183 -55 -61 -105 -83 -184 -83 -108 0 -190 60 -224 165 -43 127 28 264 155 304 56 17 84 18 135 4z"></path><path d="M1481 2372 c-13 -24 -81 -194 -143 -357 -27 -71 -53 -134 -58 -139 -5 -5 -37 17 -77 53 -37 33 -72 61 -78 61 -6 0 -41 -21 -78 -46 l-68 -45 38 -28 c48 -36 187 -160 191 -172 2 -5 -26 -83 -62 -173 -36 -90 -66 -167 -66 -170 0 -4 42 -5 93 -4 l92 3 45 122 c25 67 48 124 50 127 3 2 37 -4 75 -15 85 -23 214 -25 304 -4 36 9 68 12 72 8 4 -4 28 -60 52 -123 l44 -115 92 -3 c64 -2 91 1 91 9 0 6 -15 50 -34 98 -45 113 -152 387 -270 686 l-94 240 -100 3 c-89 2 -102 1 -111 -16z m192 -401 c42 -112 74 -207 72 -211 -8 -12 -100 -30 -155 -30 -52 0 -136 15 -157 28 -10 6 2 47 46 163 96 251 104 270 111 262 4 -4 41 -100 83 -212z"></path><path d="M3792 2113 c-23 -8 -67 -37 -97 -65 l-55 -50 0 61 0 61 -80 0 -80 0 0 -380 0 -380 79 0 80 0 3 223 c3 215 4 223 28 267 32 57 102 101 170 108 l50 5 0 83 0 84 -27 -1 c-16 0 -47 -7 -71 -16z"></path><path d="M4209 2116 c-99 -26 -200 -110 -245 -202 -99 -202 -16 -442 186 -538 61 -29 72 -31 180 -31 104 0 121 3 172 27 80 37 152 108 191 187 30 62 32 72 32 176 -1 97 -4 117 -27 166 -47 103 -138 181 -247 213 -64 19 -177 20 -242 2z m231 -170 c165 -82 167 -327 3 -423 -39 -23 -60 -28 -113 -28 -286 1 -331 407 -53 474 51 13 108 4 163 -23z"></path><path d="M5149 2117 c-47 -18 -100 -51 -124 -77 -28 -31 -35 -25 -35 30 l0 51 -77 -3 -78 -3 -3 -377 -2 -378 80 0 80 0 0 228 c0 198 3 232 19 267 40 89 147 140 239 116 44 -12 104 -58 125 -95 7 -13 14 -90 17 -206 5 -161 8 -190 26 -225 28 -54 88 -85 166 -85 l58 0 0 74 0 74 -30 7 c-54 12 -60 32 -60 215 0 91 -5 182 -10 202 -18 63 -70 129 -129 162 -47 26 -67 30 -140 33 -55 2 -99 -2 -122 -10z"></path></g></svg>