
<svg version="1.0" xmlns="http://www.w3.org/2000/svg"
 width="763.000000pt" height="327.000000pt" viewBox="0 0 763.000000 327.000000"
 preserveAspectRatio="xMidYMid meet">

<g transform="translate(0.000000,327.000000) scale(0.100000,-0.100000)"
fill="#000000" stroke="none">
<path d="M6098 3050 c-408 -72 -686 -333 -784 -735 -36 -149 -50 -350 -36
-521 31 -381 170 -653 420 -823 384 -260 954 -236 1307 56 176 145 295 384
335 674 27 195 10 483 -41 668 -24 88 -93 236 -143 306 -217 302 -633 449
-1058 375z m343 -375 c159 -34 303 -145 373 -287 20 -40 48 -118 63 -173 24
-90 27 -117 27 -270 1 -174 -6 -231 -46 -355 -32 -103 -78 -180 -148 -250
-117 -118 -246 -166 -425 -157 -167 7 -286 63 -385 179 -88 105 -137 222 -161
383 -13 91 -13 290 1 384 14 99 62 240 103 304 130 201 357 293 598 242z"/>
<path d="M978 3013 c-24 -6 -23 -14 15 -86 l32 -62 5 -970 5 -970 95 85 c52
47 148 132 213 189 l117 103 0 249 0 249 313 0 c199 0 335 -4 372 -12 71 -14
139 -58 180 -116 29 -42 30 -48 30 -145 0 -92 -3 -107 -27 -153 -32 -61 -83
-104 -153 -130 -44 -16 -89 -19 -369 -22 l-319 -3 -196 -171 c-108 -94 -203
-177 -211 -185 -13 -12 67 -14 565 -11 647 4 684 8 820 73 79 38 193 142 250
229 103 154 129 386 65 571 -38 111 -119 202 -226 255 -35 17 -64 33 -64 34 0
2 29 22 65 45 135 88 195 212 195 405 0 222 -143 426 -350 502 -133 48 -119
47 -780 50 -344 1 -633 0 -642 -3z m1087 -373 c122 -14 180 -46 218 -120 51
-100 31 -211 -51 -281 -71 -60 -84 -62 -444 -66 l-328 -4 0 240 0 241 258 0
c141 0 297 -5 347 -10z"/>
<path d="M3068 3013 c-25 -6 -22 -32 10 -89 l27 -49 5 -971 5 -972 215 188
215 189 5 668 5 668 205 3 c260 4 374 -8 456 -48 113 -55 187 -160 236 -335
20 -72 22 -103 22 -305 1 -204 -1 -233 -22 -310 -35 -128 -91 -236 -154 -298
-120 -118 -173 -132 -495 -132 l-239 0 -189 -166 c-105 -91 -199 -174 -210
-185 -20 -20 -16 -20 520 -17 527 4 542 4 615 26 336 102 543 373 622 811 26
150 29 422 4 556 -42 234 -116 399 -233 526 -103 110 -212 176 -370 220 -76
22 -93 23 -658 25 -319 1 -588 0 -597 -3z"/>
<path d="M160 1719 c0 -1245 1 -1290 18 -1277 10 7 100 85 200 172 l182 160 0
1118 0 1118 -200 0 -200 0 0 -1291z"/>
<path d="M429 554 c-123 -108 -226 -198 -228 -200 -2 -2 1625 -4 3617 -4
l3621 0 -2 198 -2 197 -3391 3 -3391 2 -224 -196z"/>
</g>
</svg>
