<svg xmlns="http://www.w3.org/2000/svg" viewBox="0 0 382 51" class="fill-black">
  <g>
    <path d="M64.5 13.46C45.45 1.85 19.83-4.18.01 6.08l33.27 17.53c-11.55.09-23.2 1.81-33.27 4.62l40.72 10.32L64.5 28.23c-5.67-2.01-11.9-3.31-18.36-4L64.5 13.46ZM.01 50.38l40.88-1.94L64.5 43C45.18 38.86 11.2 47.24.01 50.38ZM90.25 32.47c-.89-.57-1.78-.82-2.93-.82-2.1 0-3.72 1.53-3.72 4.08 0 2.35 1.89 3.88 3.99 3.88 1.1 0 2.21-.25 3.02-.71l.11 3.8c-1.21.43-2.67.65-3.96.65-4.63 0-8.16-2.83-8.16-7.71 0-4.9 3.53-7.74 8.16-7.74 1.45 0 2.75.25 3.85.82l-.36 3.75Zm12.49-.14c-.54-.17-1.08-.17-1.64-.17-2.26 0-3.53 1.73-3.53 4.62v6.24h-4.85V28.25h4.42v2.72h.05c.84-1.87 2.05-3.06 4.15-3.06.57 0 1.16.08 1.64.17l-.24 4.25Zm8.95 7.46c-2.23 0-3.15-1.96-3.15-4.14 0-2.21.92-4.17 3.15-4.17s3.15 1.96 3.15 4.17c0 2.18-.92 4.14-3.15 4.14Zm0 3.57c4.63 0 8.16-2.83 8.16-7.71 0-4.9-3.53-7.74-8.16-7.74-4.63 0-8.16 2.83-8.16 7.74 0 4.87 3.52 7.71 8.16 7.71Zm17.98-3.57c-2.24 0-3.15-1.96-3.15-4.14 0-2.21.92-4.17 3.15-4.17s3.15 1.96 3.15 4.17c0 2.18-.91 4.14-3.15 4.14Zm0 3.57c4.63 0 8.16-2.83 8.16-7.71 0-4.9-3.53-7.74-8.16-7.74-4.63 0-8.16 2.83-8.16 7.74 0 4.87 3.53 7.71 8.16 7.71Zm10.51-15.11h4.42v2.72h.05c.97-2.13 2.91-3.06 5.12-3.06 3.82 0 5.36 2.83 5.36 5.9v9.21h-4.85v-7.14c0-2.78-.92-3.71-2.23-3.71-1.99 0-3.02 1.45-3.02 4.62v6.24h-4.85V28.25ZM156.7 28.25h5.06l2.26 10.63h.05l2.42-10.63h5.82l2.37 10.63h.05l2.21-10.63h4.69l-4.28 14.77h-5.63l-2.37-10.68h-.05l-2.67 10.68H161zM190.87 39.79c-2.23 0-3.15-1.96-3.15-4.14 0-2.21.92-4.17 3.15-4.17 2.24 0 3.15 1.96 3.15 4.17 0 2.18-.91 4.14-3.15 4.14Zm0 3.57c4.63 0 8.16-2.83 8.16-7.71 0-4.9-3.53-7.74-8.16-7.74-4.63 0-8.16 2.84-8.16 7.74 0 4.88 3.53 7.71 8.16 7.71ZM201.94 21.76h4.85v21.26h-4.85zM209.13 28.25h2.86v-3.31l4.77-1.56v4.88h3.39v3.57h-3.39v5.44c0 1.79.4 2.69 1.94 2.69.49 0 1-.12 1.48-.2l.16 3.32c-.91.12-1.83.28-3.04.28-4.34 0-5.39-2.01-5.39-5.53v-6.01h-2.78v-3.57Zm17.37 5.98c.11-1.7.94-3.09 2.69-3.09 1.94 0 2.69 1.39 2.69 3.09h-5.38Zm9.75 2.9v-.94c0-4.4-1.88-8.28-7.08-8.28-4.36 0-7.51 2.84-7.51 7.71s3.53 7.74 8.16 7.74c1.8 0 3.58-.28 5.14-.94v-3.6a8.714 8.714 0 0 1-4.28 1.13c-2.37 0-3.85-.79-4.12-2.83h9.69v.01Zm12.55-4.79c-.54-.17-1.08-.17-1.64-.17-2.26 0-3.53 1.73-3.53 4.62v6.23h-4.85V28.25h4.42v2.72h.05c.83-1.87 2.05-3.06 4.15-3.06.56 0 1.15.08 1.64.17l-.24 4.26Zm6.56 4.9c0-1.42.65-2.13 1.7-2.72 1.43 1.39 2.83 2.81 4.18 4.36-.94.74-1.72 1.08-2.86 1.08-1.51 0-3.02-1.02-3.02-2.72Zm10.04-4.9c-.06 1.28-.38 2.58-1.24 3.57a87.155 87.155 0 0 0-3.23-3.15c1.99-1.22 4.04-2.49 4.04-4.99 0-3.69-3.23-4.88-6.52-4.88-2.96 0-6.25 1.25-6.25 4.73 0 1.73.75 3.09 2.26 4.34-2.31 1.13-3.69 2.64-3.69 5.39 0 4.08 3.53 6.01 7.11 6.01 2.05 0 4.23-.37 5.85-1.84.41.45.76.97 1.13 1.5h5.36l-3.34-3.91c1.75-1.82 2.77-4.26 2.88-6.78h-4.36v.01Zm-8.88-4.46c0-.99.83-1.76 1.99-1.76 1.16 0 2.1.59 2.1 1.76 0 1.31-1.37 2.1-2.29 2.67-.75-.62-1.8-1.53-1.8-2.67Zm20.59 7.6c0-1.96 1.05-3.66 2.94-3.66 1.78 0 2.96 1.62 2.96 3.85 0 2.16-1.34 3.77-2.96 3.77-1.84.01-2.94-1.61-2.94-3.96Zm10.74-13.72h-4.87v8.39h-.06c-1.24-1.7-2.88-2.24-4.82-2.24-3.88 0-6.01 3.83-6.01 7.46 0 4.37 2.24 7.99 6.41 7.99 2.23 0 4.2-1.33 4.82-2.98h.05v2.63h4.47V21.76h.01Zm12.93 10.58c-.54-.17-1.08-.17-1.65-.17-2.26 0-3.52 1.73-3.52 4.62v6.23h-4.85V28.25h4.42v2.72h.06c.84-1.87 2.04-3.06 4.14-3.06.57 0 1.16.08 1.64.17l-.24 4.26Zm8.95 7.45c-2.24 0-3.15-1.96-3.15-4.14 0-2.21.91-4.17 3.15-4.17 2.24 0 3.15 1.96 3.15 4.17 0 2.18-.92 4.14-3.15 4.14Zm0 3.57c4.63 0 8.16-2.83 8.16-7.71 0-4.9-3.53-7.74-8.16-7.74-4.64 0-8.16 2.84-8.16 7.74-.01 4.88 3.52 7.71 8.16 7.71Zm10.23-4.42c1.13.51 2.8 1.02 4.55 1.02 1 0 1.97-.17 1.97-1.19 0-2.49-6.89-.74-6.89-6.06 0-3.4 3.17-4.79 5.98-4.79 1.67 0 3.36.2 4.93.85l-.37 3.54c-1.02-.65-2.56-.99-3.77-.99-1.05 0-2.24.2-2.24 1.02 0 2.29 7.21.48 7.21 6.09 0 3.94-3.36 4.93-6.54 4.93-2.18 0-3.66-.23-5.08-.71l.25-3.71ZM340.76 46.08V24.53h2.56v21.55zM358.01 30.83v12.19h-2.88V30.83h-3.86v-2.57h10.59v2.57zM370.4 43.02h-6.18V28.25h5.93c2.88 0 4.56 1.62 4.56 4.15 0 1.64-1.08 2.69-1.82 3.05.89.42 2.03 1.35 2.03 3.32 0 2.76-1.89 4.25-4.52 4.25Zm-.48-12.19h-2.82v3.4h2.82c1.23 0 1.91-.68 1.91-1.7s-.68-1.7-1.91-1.7Zm.19 5.99h-3.01v3.63h3.01c1.31 0 1.93-.83 1.93-1.82 0-1-.63-1.81-1.93-1.81ZM379 43.02V28.25h2.88v14.76H379z"></path>
  </g>
</svg>