<?xml version="1.0" standalone="no"?>
<!DOCTYPE svg PUBLIC "-//W3C//DTD SVG 20010904//EN"
 "http://www.w3.org/TR/2001/REC-SVG-20010904/DTD/svg10.dtd">
<svg version="1.0" xmlns="http://www.w3.org/2000/svg"
 width="500.000000pt" height="250.000000pt" viewBox="0 0 500.000000 250.000000"
 preserveAspectRatio="xMidYMid meet">

<g transform="translate(0.000000,250.000000) scale(0.100000,-0.100000)"
fill="#000000" stroke="none">
<path d="M2060 1265 l0 -505 88 0 88 0 11 30 11 30 57 -35 c116 -70 240 -72
372 -8 67 33 160 129 311 322 126 161 141 174 198 190 53 14 105 -1 154 -45
47 -42 64 -89 58 -156 -10 -102 -109 -173 -213 -154 -44 9 -103 59 -125 108
l-16 37 -67 -83 c-37 -46 -67 -88 -67 -93 0 -17 104 -109 146 -131 94 -47 203
-51 312 -10 79 29 170 121 202 203 33 83 34 206 1 288 -30 76 -115 167 -189
204 -51 25 -68 28 -157 28 -172 0 -226 -38 -431 -306 -180 -236 -255 -282
-371 -230 -115 53 -136 224 -37 311 67 58 191 35 269 -52 42 -46 32 -50 115
52 l53 64 -54 50 c-82 75 -164 110 -271 114 -100 4 -152 -9 -222 -57 -25 -17
-47 -31 -50 -31 -3 0 -6 83 -6 185 l0 185 -85 0 -85 0 0 -505z"/>
<path d="M253 1476 c-107 -35 -186 -107 -225 -205 -28 -71 -30 -231 -5 -299
60 -158 204 -241 397 -229 51 3 107 13 139 25 61 24 131 69 131 86 0 6 -24 32
-54 58 l-53 46 -54 -26 c-46 -23 -67 -27 -141 -27 -80 0 -89 2 -129 30 -60 42
-80 88 -81 177 0 83 11 120 50 161 43 45 81 61 152 61 97 1 164 -39 185 -111
l6 -23 -160 0 -161 0 0 -75 0 -75 245 0 245 0 0 59 c0 173 -64 290 -190 350
-46 21 -72 26 -155 28 -65 2 -115 -2 -142 -11z"/>
<path d="M3990 1479 c-19 -6 -50 -22 -68 -35 l-32 -25 -10 25 c-9 25 -13 26
-95 26 l-85 0 0 -355 0 -355 85 0 85 0 0 213 c0 204 1 216 23 257 42 81 166
112 248 64 l36 -21 37 75 c36 73 37 77 19 90 -53 41 -174 62 -243 41z"/>
<path d="M4517 1480 c-189 -34 -301 -195 -283 -407 12 -146 70 -239 184 -295
61 -30 74 -33 162 -33 80 0 102 4 138 23 l42 22 0 81 0 80 -31 -23 c-23 -17
-47 -23 -102 -26 -93 -5 -148 22 -192 93 -26 42 -30 58 -30 119 0 130 70 207
195 214 73 4 124 -14 167 -60 47 -50 53 -84 53 -303 l0 -205 90 0 90 0 0 355
0 355 -89 0 -89 0 -11 -32 c-10 -29 -12 -30 -29 -15 -53 48 -172 74 -265 57z"/>
<path d="M1090 1464 c-19 -8 -42 -22 -52 -31 -16 -14 -18 -14 -27 11 -10 25
-13 26 -96 26 l-85 0 0 -355 0 -355 85 0 85 0 0 213 c0 201 1 215 23 257 32
63 66 85 134 85 50 0 57 -3 88 -37 18 -20 38 -53 44 -75 6 -21 11 -128 11
-240 l0 -203 85 0 85 0 0 193 c1 249 10 286 84 341 40 30 117 28 152 -5 50
-45 54 -71 54 -309 l0 -220 91 0 91 0 -4 243 c-5 286 -13 323 -89 399 -60 60
-130 83 -235 76 -82 -6 -145 -36 -188 -90 -14 -18 -26 -30 -28 -28 -50 68 -67
85 -102 101 -51 23 -156 25 -206 3z"/>
</g>
</svg>
