
<svg xmlns:dc="http://purl.org/dc/elements/1.1/" xmlns:cc="http://creativecommons.org/ns#" xmlns:rdf="http://www.w3.org/1999/02/22-rdf-syntax-ns#" xmlns:svg="http://www.w3.org/2000/svg" xmlns="http://www.w3.org/2000/svg" viewBox="0 0 1466.6667 393.33334" height="393.33334" width="1466.6667" xml:space="preserve" id="svg2" version="1.1"><metadata id="metadata8" fill="#000000"><rdf:RDF fill="#000000"><cc:Work rdf:about="" fill="#000000"><dc:format fill="#000000">image/svg+xml</dc:format><dc:type rdf:resource="http://purl.org/dc/dcmitype/StillImage" fill="#000000"/></cc:Work></rdf:RDF></metadata><defs id="defs6" fill="#000000"/><g transform="matrix(1.3333333,0,0,-1.3333333,0,393.33333)" id="g10"><g transform="scale(0.1)" id="g12"><path id="path14" style="fill:#000000;fill-opacity:1;fill-rule:nonzero;stroke:none" d="M 3816.59,2410.81 H 2430.89 V 948.93 h 216.19 v 654.76 h 1134.51 v 177.07 H 2647.08 v 452.98 h 1169.51 z m 315,30.89 V 948.93 H 4327.2 V 2441.7 Z M 4771.92,508.301 c 265.61,0 446.8,107.07 595.05,376.801 l 638.29,1093.318 h -220.32 l -461.21,-803 c -12.35,-24.71 -22.65,-47.36 -28.83,-65.89 h -4.12 c -6.17,18.53 -14.41,41.18 -28.82,67.95 l -479.75,800.94 H 4545.43 L 5191.95,946.871 5177.54,915.98 c -65.89,-137.949 -210.02,-236.781 -424.15,-236.781 -35,0 -72.07,2.063 -111.19,8.242 V 518.602 c 45.3,-8.243 88.54,-10.301 129.72,-10.301 z M 6421.15,948.93 v 461.21 c 0,269.73 210.02,440.63 533.28,440.63 308.85,0 461.22,-148.25 461.22,-444.75 V 948.93 h 197.66 v 506.51 c 0,366.5 -212.08,562.1 -603.28,562.1 -280.03,0 -483.87,-100.89 -590.94,-292.37 v 253.25 H 6225.55 V 948.93 Z M 8086.89,1824 v -496.22 c 0,-203.84 70.01,-407.678 450.92,-407.678 96.77,0 214.14,18.527 265.61,41.179 v 166.779 c -72.07,-16.47 -158.54,-28.83 -242.96,-28.83 -179.13,0 -275.91,70.01 -275.91,247.08 V 1824 h 514.75 v 154.42 h -514.75 v 347.97 l -197.66,-80.3 V 1978.42 H 7763.63 V 1824 Z M 9307.84,948.93 v 463.27 c 0,261.49 212.08,438.57 520.93,438.57 308.83,0 473.53,-168.84 473.53,-487.98 V 948.93 h 197.7 v 440.62 c 0,411.8 -214.1,627.99 -615.64,627.99 -261.49,0 -467.39,-105 -576.52,-290.31 v 714.47 h -195.6 V 948.93 h 195.6"/><path id="path16" style="fill:#000000;fill-opacity:1;fill-rule:nonzero;stroke:none" d="m 2094.96,2410.11 c 0,0 -210.62,0 -466.52,0 -84.1,0 -173.09,0 -261.14,0 -135.11,0 -277.42,0 -417.3,0 -562.305,0 -438.437,-369.51 -438.437,-369.51 0,0 459.492,0 845.817,0 115.08,0 219.34,0 295.86,0 1.06,0 2.27,0 3.28,0 562.35,0 438.44,369.51 438.44,369.51"/><path id="path18" style="fill:#000000;fill-opacity:1;fill-rule:nonzero;stroke:none" d="m 1696.21,1863.53 c 0,0 -157.97,0 -349.92,0 -63.05,0 -129.81,0 -195.78,0 -101.37,0 -208.127,0 -313.01,0 -421.758,0 -328.867,-369.51 -328.867,-369.51 0,0 344.687,0 634.417,0 86.29,0 164.49,0 221.87,0 0.78,0 1.68,0 2.46,0 421.76,0 328.83,369.51 328.83,369.51"/><path id="path20" style="fill:#000000;fill-opacity:1;fill-rule:nonzero;stroke:none" d="m 1297.5,1316.95 c 0,0 -105.31,0 -233.28,0 -42.07,0 -86.525,0 -130.548,0 -67.578,0 -138.75,0 -208.672,0 -281.172,0 -219.219,-369.509 -219.219,-369.509 0,0 229.766,0 422.93,0 57.5,0 109.649,0 147.889,0 0.55,0 1.13,0 1.68,0 281.13,0 219.22,369.509 219.22,369.509"/></g></g></svg>