<?xml version="1.0" standalone="no"?>
<!DOCTYPE svg PUBLIC "-//W3C//DTD SVG 20010904//EN"
 "http://www.w3.org/TR/2001/REC-SVG-20010904/DTD/svg10.dtd">
<svg version="1.0" xmlns="http://www.w3.org/2000/svg"
 width="849.000000pt" height="294.000000pt" viewBox="0 0 849.000000 294.000000"
 preserveAspectRatio="xMidYMid meet">

<g transform="translate(0.000000,294.000000) scale(0.100000,-0.100000)"
fill="#000000" stroke="none">
<path d="M4170 2841 l0 -51 60 0 60 0 0 -1055 0 -1054 -57 -3 -58 -3 0 -45 0
-45 208 -3 207 -2 0 50 0 50 -55 0 -55 0 0 505 0 505 68 0 c85 0 138 -15 156
-43 11 -18 15 -100 19 -407 5 -411 16 -530 58 -617 48 -99 191 -124 249 -43
11 16 20 38 20 49 0 17 -6 21 -30 21 -24 0 -33 6 -42 27 -8 19 -14 154 -19
403 -4 218 -12 400 -19 435 -19 98 -48 136 -134 182 l-76 39 65 48 c74 56 89
85 130 246 41 160 44 286 10 485 -37 223 -78 305 -175 349 -41 18 -70 20 -317
24 l-273 4 0 -51z m478 -70 c73 -38 72 -29 72 -490 l0 -411 -28 -31 c-26 -29
-37 -33 -118 -44 -49 -7 -92 -10 -96 -8 -12 7 -10 961 2 984 15 27 116 27 168
0z"/>
<path d="M6442 2873 c-18 -9 -61 -44 -95 -77 -192 -189 -281 -590 -263 -1176
9 -300 36 -481 104 -700 62 -199 104 -281 181 -353 48 -45 53 -47 108 -47 129
0 180 37 280 203 93 154 105 200 110 425 l5 182 44 0 44 0 0 45 0 45 -205 0
-205 0 0 -50 0 -50 66 0 66 0 -4 -262 c-3 -252 -4 -265 -26 -311 -44 -88 -149
-123 -223 -74 -41 26 -75 91 -89 169 -7 37 -10 343 -8 895 l3 838 24 55 c56
127 111 180 188 180 83 0 131 -42 192 -170 37 -76 69 -192 87 -313 4 -29 9
-37 22 -35 15 3 17 30 20 301 1 174 -1 297 -7 297 -5 0 -27 -21 -49 -47 -44
-53 -46 -52 -121 2 -18 14 -50 29 -70 35 -54 15 -142 12 -179 -7z"/>
<path d="M8397 2845 c-16 -25 -33 -48 -38 -51 -5 -3 -24 7 -42 22 -104 88
-239 84 -326 -11 -90 -97 -125 -357 -102 -755 17 -294 26 -357 66 -477 43
-129 105 -249 187 -363 148 -206 163 -252 173 -525 9 -230 2 -280 -52 -396
-40 -88 -80 -119 -153 -119 -77 0 -128 79 -200 310 -23 74 -46 139 -51 144 -5
6 -9 -104 -9 -272 0 -219 3 -282 13 -282 6 0 29 19 49 42 l38 43 27 -31 c36
-41 63 -54 112 -54 108 0 200 69 264 197 90 178 112 316 104 643 -11 409 -14
416 -263 782 -177 261 -198 333 -199 673 0 225 1 232 27 311 32 92 59 123 115
131 45 6 84 -11 121 -50 53 -56 128 -275 147 -430 5 -38 10 -48 23 -45 15 3
17 30 20 283 3 270 0 325 -16 325 -4 0 -20 -20 -35 -45z"/>
<path d="M50 2835 l0 -45 55 0 55 0 0 -1310 0 -1310 -55 0 -55 0 0 -50 0 -50
213 2 212 3 3 47 3 47 -58 3 -58 3 -3 732 c-1 461 2 741 8 757 l10 26 145 0
145 0 0 -760 0 -760 -66 0 -65 0 3 -47 3 -48 233 -3 233 -2 -3 47 -3 48 -60 5
-60 5 -3 1307 -2 1307 57 3 58 3 3 43 3 42 -230 0 -231 0 0 -45 0 -45 65 0 65
0 0 -505 0 -505 -150 0 -150 0 0 504 0 505 53 3 52 3 0 40 0 40 -212 3 -213 2
0 -45z"/>
<path d="M1090 2835 l0 -45 55 0 54 0 4 -902 c3 -882 4 -905 25 -998 41 -183
125 -297 233 -319 115 -24 212 37 280 174 57 117 59 142 66 1138 l6 907 63 0
64 0 0 45 0 45 -160 0 -160 0 0 -45 0 -45 60 0 61 0 -3 -962 -3 -963 -23 -56
c-32 -79 -69 -111 -134 -117 -63 -5 -93 14 -133 82 -52 88 -55 156 -55 1129
l0 887 61 0 60 0 -3 43 -3 42 -207 3 -208 2 0 -45z"/>
<path d="M2030 2835 l0 -45 60 0 60 0 0 -1065 0 -1065 -60 0 -60 0 0 -45 0
-45 218 2 217 3 3 42 3 42 -58 3 -58 3 -3 1063 -2 1062 60 0 60 0 0 45 0 45
-220 0 -220 0 0 -45z"/>
<path d="M2670 2835 l0 -44 63 -3 62 -3 3 -945 c2 -520 0 -987 -3 -1039 -7
-99 -23 -131 -65 -131 -19 0 -20 7 -20 150 0 82 -5 171 -11 197 -13 60 -49
133 -71 147 -28 17 -66 -28 -90 -107 -17 -58 -20 -87 -16 -195 4 -113 7 -134
33 -190 61 -135 154 -147 273 -37 94 87 121 156 152 388 6 49 10 397 10 923
l0 844 75 0 75 0 0 45 0 45 -235 0 -235 0 0 -45z"/>
<path d="M3230 2830 l0 -50 55 0 55 0 0 -1060 0 -1060 -55 0 -55 0 0 -50 0
-50 268 0 c299 0 329 5 399 64 21 19 51 56 65 82 87 161 102 618 27 820 -26
70 -113 163 -172 185 -20 7 -37 15 -37 19 0 3 23 16 51 30 89 43 127 106 153
250 57 314 31 577 -74 739 -77 119 -116 131 -437 131 l-243 0 0 -50z m471 -80
c69 -36 69 -37 68 -482 0 -277 -4 -403 -12 -428 -17 -49 -62 -70 -154 -70
l-73 0 0 498 c0 274 3 502 8 506 12 14 120 -3 163 -24z m43 -1094 c54 -35 56
-51 56 -478 -1 -525 2 -518 -177 -518 l-93 0 0 511 0 511 94 -4 c67 -3 101 -9
120 -22z"/>
<path d="M5170 2835 l0 -45 55 0 55 0 0 -1065 0 -1065 -56 0 -55 0 3 -43 3
-42 358 -3 357 -2 0 359 c0 334 -4 390 -26 369 -2 -3 -11 -69 -20 -149 -32
-296 -76 -438 -151 -477 -32 -17 -197 -16 -212 2 -8 9 -10 152 -9 512 l3 499
25 -4 c96 -13 142 -112 159 -339 3 -45 11 -83 16 -85 7 -1 11 167 13 487 2
411 0 487 -11 477 -9 -7 -16 -45 -20 -108 -9 -140 -53 -287 -96 -320 -17 -13
-50 -16 -75 -7 -14 5 -16 58 -16 489 0 266 3 490 6 499 5 13 24 16 108 16 116
0 159 -15 188 -66 30 -52 68 -222 74 -329 7 -119 9 -126 29 -119 13 5 15 45
15 305 l0 299 -360 0 -360 0 0 -45z"/>
<path d="M6990 2554 c0 -305 1 -325 18 -322 14 3 18 19 24 104 13 200 72 370
146 419 20 13 52 27 70 31 l32 7 0 -1049 c0 -577 -4 -1054 -8 -1061 -4 -6 -24
-14 -45 -18 -36 -7 -37 -8 -37 -51 l0 -44 178 2 177 3 3 43 c3 42 3 42 -30 42
-19 0 -39 5 -46 12 -9 9 -12 259 -12 1065 l0 1053 25 0 c93 0 182 -91 205
-208 9 -48 31 -235 35 -302 3 -49 3 -50 20 -50 13 0 15 40 13 323 l-3 322
-382 3 -383 2 0 -326z"/>
<path d="M1416 420 c-54 -27 -67 -40 -87 -85 -85 -186 140 -376 280 -236 38
38 69 116 58 146 -8 20 -129 22 -146 1 -15 -18 13 -49 38 -41 9 3 25 -1 34 -7
14 -11 15 -17 4 -38 -14 -29 -70 -60 -107 -60 -42 0 -90 37 -112 87 -28 64
-20 115 25 160 45 46 96 53 162 24 72 -32 90 -27 60 15 -36 53 -138 69 -209
34z"/>
<path d="M4399 430 c-79 -23 -123 -90 -123 -185 -1 -68 25 -117 84 -160 119
-88 293 13 293 170 0 60 -21 105 -65 138 -58 43 -126 56 -189 37z m132 -53
c34 -26 69 -90 69 -126 0 -73 -68 -151 -132 -151 -44 0 -98 29 -119 64 -23 38
-25 125 -4 166 8 16 28 36 43 44 33 18 121 20 143 3z"/>
<path d="M2877 423 c-11 -10 -8 -361 3 -368 5 -3 19 -1 30 5 17 9 20 21 20 80
0 39 3 70 8 70 4 0 29 -34 55 -76 49 -77 70 -95 89 -76 7 7 -3 30 -36 77 -25
36 -46 70 -46 75 0 5 13 18 29 29 63 45 62 132 -3 172 -31 19 -134 27 -149 12z
m124 -53 c29 -16 26 -73 -6 -94 -31 -20 -61 -21 -69 0 -3 9 -6 36 -6 60 0 42
1 44 31 44 17 0 39 -5 50 -10z"/>
<path d="M5850 245 l0 -185 106 0 c104 0 105 0 102 23 -3 20 -9 22 -76 25
l-73 3 3 62 3 62 70 5 c62 4 70 7 70 25 0 18 -8 21 -70 25 l-70 5 -3 42 -3 42
73 3 c67 3 73 5 76 26 3 22 2 22 -102 22 l-106 0 0 -185z"/>
<path d="M7277 423 c-11 -11 -8 -361 3 -368 6 -3 19 -3 30 0 18 6 20 15 20 81
l0 74 40 6 c51 8 100 52 101 91 3 80 -12 98 -95 112 -73 13 -90 13 -99 4z
m133 -58 c31 -37 -2 -105 -50 -105 -22 0 -30 19 -30 76 0 43 1 44 34 44 18 0
39 -7 46 -15z"/>
</g>
</svg>
