<?xml version="1.0" encoding="utf-8"?>
<!-- Generator: Adobe Illustrator 23.0.3, SVG Export Plug-In . SVG Version: 6.00 Build 0)  -->
<svg version="1.1" id="Laag_1" xmlns="http://www.w3.org/2000/svg" xmlns:xlink="http://www.w3.org/1999/xlink" x="0px" y="0px"
	 viewBox="0 0 484 197" style="enable-background:new 0 0 484 197;" xml:space="preserve">
<style type="text/css">
	.st0{fill-rule:evenodd;clip-rule:evenodd;fill:black;}
	.st1{fill-rule:evenodd;clip-rule:evenodd;fill:black}
	.st2{fill-rule:evenodd;clip-rule:evenodd;fill:#FFFFFF;}
	.st3{fill-rule:evenodd;clip-rule:evenodd;fill:url(#SVGID_1_);}
	.st4{fill-rule:evenodd;clip-rule:evenodd;fill:#4F535E;fill-opacity:0.4;}
</style>
<g>
	<g transform="translate(63.894 145.85)">
		<polygon class="st0" points="0.9,50.5 0.9,1.4 419.9,1.4 403.4,50.5 		"/>
		<polygon class="st1" points="228.3,50.5 244.8,1.4 419.9,1.4 403.4,50.5 		"/>
		<polygon class="st2" points="46.3,15.3 53.6,15.3 58.5,32.2 63.3,15.3 70.8,15.3 70.8,36.5 66.1,36.5 66.6,19.7 61,36.5 
			55.8,36.5 50.5,19.6 50.9,36.5 46.3,36.5 		"/>
		<polygon class="st2" points="76.4,15.3 91.1,15.3 91.1,19.3 81.4,19.3 81.4,23.9 89.6,23.9 89.6,27.6 81.4,27.6 81.4,32.5 
			91.2,32.5 91.2,36.5 76.4,36.5 		"/>
		<polygon class="st2" points="100.2,19.7 94.3,19.7 94.3,15.3 111.2,15.3 111.2,19.7 105.2,19.7 105.1,36.5 100.2,36.5 		"/>
		<path class="st2" d="M124.2,29.1l-2.7-9.1l-2.8,9.1H124.2z M118.6,15.3h5.8l7.4,21.2h-5.4l-1.2-3.8h-7.8l-1.2,3.8h-5.3L118.6,15.3
			z M147.1,29.1l-2.7-9.1l-2.8,9.1H147.1z M141.5,15.3h5.8l7.4,21.2h-5.4l-1.2-3.8h-7.8l-1.2,3.8h-5.3L141.5,15.3z"/>
		<polygon class="st2" points="158.6,15.3 163.5,15.3 163.5,32.1 171.7,32.1 171.7,36.5 158.6,36.5 		"/>
		<path class="st2" d="M187.3,30.3c0,2,1,3.5,4.2,3.5c1.2,0,2.3-0.3,3.2-0.9c-1.2-1.2-2.5-2.6-3.8-4L189,27
			C188.1,27.6,187.3,28.7,187.3,30.3 M199.3,21.1h-4.5c0-1.8-0.6-2.9-2.4-2.9c-1.9,0-2.5,1.1-2.5,2.4c0,2.3,2.2,4.1,5,7l1.8,1.9
			c0.4-1.3,0.6-2.9,0.6-4.7h4.1c0,3-0.6,5.6-1.7,7.6l3,3v1.4h-4.3c0,0-0.6-0.6-1.4-1.4c-1.7,1.2-3.9,1.8-6.5,1.8
			c-5,0-7.5-2.3-7.5-6.8c0-3.7,2.2-5.4,3.8-6.1c-0.8-1.2-1.3-2.5-1.3-4.1c0-3.6,2.4-5.5,6.9-5.5C197.3,14.7,199.3,17.2,199.3,21.1"
			/>
		<polygon class="st2" points="218.9,19.7 213,19.7 213,15.3 229.9,15.3 229.9,19.7 223.9,19.7 223.8,36.5 218.9,36.5 		"/>
		<polygon class="st2" points="233.7,15.3 248.4,15.3 248.4,19.3 238.7,19.3 238.7,23.9 246.9,23.9 246.9,27.6 238.7,27.6 
			238.7,32.5 248.5,32.5 248.5,36.5 233.7,36.5 		"/>
		<path class="st2" d="M261.4,37.1c-6.3,0-9.3-3.1-9.3-11.2c0-8.1,3-11.2,9.3-11.2c5.6,0,8.6,2.3,8.7,8.8h-4.8
			c-0.1-3.5-1.4-4.5-3.8-4.5c-2.9,0-4.2,1.7-4.2,7c0,5.3,1.4,7,4.2,7c2.4,0,3.7-1,3.8-4.6h4.8C270,34.9,267,37.1,261.4,37.1"/>
		<polygon class="st2" points="274.8,15.3 279.7,15.3 279.7,23.5 287,23.5 287,15.3 291.9,15.3 291.9,36.5 287,36.5 287,27.9 
			279.7,27.9 279.7,36.5 274.8,36.5 		"/>
		<polygon class="st2" points="302.1,36.5 297.5,36.5 297.6,15.3 303.3,15.3 311.4,30.5 311.1,15.3 315.7,15.3 315.7,36.5 310,36.5 
			301.9,21 		"/>
		<polygon class="st2" points="321.3,36.5 326.3,36.5 326.3,15.3 321.3,15.3 		"/>
		<polygon class="st2" points="331.9,15.3 346.5,15.3 346.5,19.3 336.8,19.3 336.8,23.9 345,23.9 345,27.6 336.8,27.6 336.8,32.5 
			346.7,32.5 346.7,36.5 331.9,36.5 		"/>
		<polygon class="st2" points="351.1,15.3 356,15.3 356,26.1 363.6,15.3 369.1,15.3 362.5,23.9 369.3,36.5 363.9,36.5 359.4,27.9 
			356,32.4 356,36.5 351.1,36.5 		"/>
	</g>
	<path class="st0" d="M283.2,83.2V0.6h-99.4L174,38.5l-9.9-37.9H64.7v34.8h-9.9V0.6H0v108.5c0,23.7,8.6,35.4,9.6,36.6l5.2,6.6
		l45.4-27.4l-3.8-7.6c-0.2-0.5-1.6-4-1.6-8.8V85.7h9.9v46.7h54.8V41.9l27.5,90.5h53.8l27.5-90.5v90.5h85.3l16.6-49.1H283.2z"/>
	<path class="st2" d="M277.9,5.9h-90l-14,53.7L160,5.9h-90v34.8H49.5V5.9H5.3v103.2c0,22.3,8.1,32.9,8.5,33.3l2.3,2.9L53.2,123
		l-1.6-3.4c0,0-2.1-4.6-2.1-11V80.3h20.5V127h44.2V6.2L151,127h45.9L233.7,6.2V127h76.1l13-38.5h-44.9V5.9z"/>
	<linearGradient id="SVGID_1_" gradientUnits="userSpaceOnUse" x1="54.3961" y1="-57.9057" x2="237.2" y2="208.963">
		<stop  offset="3.833464e-02" style="stop-color:black"/>
		<stop  offset="0.4793" style="stop-color:black"/>
		<stop  offset="0.9419" style="stop-color:black"/>
	</linearGradient>
	<path class="st3" d="M110.1,10v112.9H74.2V76.2H45.4v32.4c0,7.5,2.5,12.7,2.5,12.7l-30.8,18.6c0,0-7.6-9.7-7.6-30.8V10h35.9v34.8
		h28.8V10H110.1z M228.2,10l-34.4,112.9h-39.8L119.7,10h37.1L174,76l17.2-66H228.2z M273.8,10v82.6h43.1l-10.2,30.3h-68.8V10H273.8z
		"/>
	<path class="st4" d="M273.8,10v82.6h43.1l-10.2,30.3h-68.8V10H273.8z M154.1,122.9l-17.3-56.8l29.8-18.4L174,76l10.2-39.1L227.8,10
		h0.4l-34.4,112.9H154.1z M110.1,82.5v40.4H74.2v-18.2L110.1,82.5z"/>
</g>
</svg>
