<svg  version="1.1" id="Layer_1" xmlns="http://www.w3.org/2000/svg" x="0" y="0" width="201" height="49" xml:space="preserve"><style>.st0{fill:black}</style><path class="st0" d="M48.4 48.9H0V0h48.4v48.9zM1.5 47.4h45.4V1.5H1.5v45.9z"/><path d="M3.2 3.4h9.2v9.1H3.2zm0 11h9.2v9.1H3.2zm0 10.9h9.2v9.1H3.2zm0 10.9h9.2v9.1H3.2zm11-32.8h9.2v9.1h-9.2zm0 11h9.2v9.1h-9.2zm0 10.9h9.2v9.1h-9.2zm0 10.9h9.2v9.1h-9.2zM25.1 3.4h9.2v9.1h-9.2zm0 11h9.2v9.1h-9.2zm0 10.9h9.2v9.1h-9.2zm0 10.9h9.2v9.1h-9.2zM35.9 3.4h9.2v9.1h-9.2zm0 11h9.2v9.1h-9.2zm0 10.9h9.2v9.1h-9.2zm0 10.9h9.2v9.1h-9.2z" fill="black"/><path class="st0" d="M54.1 26.4h4.2l.9 15.1 1.3-15.1h3.7l-2.4 22.5h-5.4l-2.3-22.5zm12.6 0h5.7l2.5 22.5h-4.2l-.3-4.7h-1.9l-.4 4.7h-3.7l2.3-22.5zm3.5 14.8l-.6-8.1v-1c0-.3-.1-.5-.1-.7v-.2.2c0 .3-.1.5-.1.8 0 .4-.1.7-.1.7v.2l-.6 8.1h1.5zm6.1-14.8h4.3L82.9 37V26.4h3.7v22.5h-4.3L80 37.6v11.3h-3.7V26.4zm18.7 0h4.2v8.7h1.5v-8.7h4.2v22.5h-4.2V38.1h-1.5v10.8H95V26.4zm12.1 4.1v-.8c0-1.4.4-2.3 1.5-2.8.7-.4 1.4-.5 3.4-.5 2.4 0 3.2.2 4 .8.5.5.8 1 .9 1.8v15.9c0 1.5 0 1.9-.3 2.3-.3.8-1.1 1.4-2 1.6-.5.1-1.3.2-2.7.2-2 0-2.7-.1-3.4-.5-1-.5-1.5-1.4-1.5-2.8V30.5zm5.7.5v-.5c0-.8-.2-1.1-.7-1.1-.4 0-.6.2-.7.6 0 .2-.1.4-.1 1v13.3c0 .7 0 .9.1 1.1.1.3.3.5.7.5.5 0 .7-.4.7-1.2V31zm6.4-.5v-.8c0-1.4.4-2.3 1.5-2.8.7-.4 1.4-.5 3.4-.5 2.4 0 3.2.2 4 .8.5.5.8 1 .9 1.8v15.9c0 1.5 0 1.9-.3 2.3-.3.8-1.1 1.4-2 1.6-.5.1-1.3.2-2.7.2-2 0-2.7-.1-3.4-.5-1-.5-1.5-1.4-1.5-2.8V30.5zm5.6.5v-.5c0-.8-.2-1.1-.7-1.1-.4 0-.6.2-.7.6 0 .2-.1.4-.1 1v13.3c0 .7 0 .9.1 1.1.1.3.3.5.7.5.5 0 .7-.4.7-1.2V31zm6.6-4.6h6.8v3h-2.6V35h2.6v3h-2.6v10.8h-4.2V26.4zm24.2 22.5h-1.5l-.9-1.6c-.8 1.3-1.7 1.7-3.6 1.7-1.7 0-2.8-.5-3.5-1.4-.4-.6-.4-1-.4-2.4V30.4c0-1.9.1-2.3.7-2.9.8-.9 1.7-1.1 4.2-1.1 2.4 0 3.2.2 4 .8.7.6 1 1.3 1 2.9v4.1h-4.2v-3.6c0-.8-.2-1.2-.7-1.2-.4 0-.7.3-.7.8v14.6c0 .9.2 1.3.7 1.3s.7-.3.7-1.3v-4.3h-1v-3h5.2v11.4zm2.2-22.5h6.1c1.5 0 2.3.3 3 1 .6.6.7 1.1.7 2.8v4.6c0 1.8-.3 2.3-1.8 3 1.3.4 1.8 1.1 1.8 2.6v8.5h-4.2v-8.5c0-.8-.3-1.1-1.2-1.1h-.2v9.6h-4.2V26.4zm4.2 9.9h.6c.6 0 .8-.3.8-.9v-5.1c0-.6-.3-.8-.9-.8h-.5v6.8zm7.8-5.8v-.8c0-1.4.4-2.3 1.5-2.8.7-.4 1.4-.5 3.4-.5 2.4 0 3.2.2 4 .8.5.5.8 1 .9 1.8v15.9c0 1.5 0 1.9-.3 2.3-.3.8-1.1 1.4-2 1.6-.5.1-1.3.2-2.7.2-2 0-2.7-.1-3.4-.5-1-.5-1.5-1.4-1.5-2.8V30.5zm5.7.5v-.5c0-.8-.2-1.1-.7-1.1-.4 0-.6.2-.7.6 0 .2-.1.4-.1 1v13.3c0 .7 0 .9.1 1.1.1.3.3.5.7.5.5 0 .7-.4.7-1.2V31zm6.5-4.6h6.9v3h-2.7V35h2.7v3h-2.7v7.8h2.7v3H182V26.4zm9.1 0h6.6c1.3.1 2.3.6 2.9 1.5.3.5.4 1 .4 2.3v7.3c0 1.2-.1 1.8-.6 2.3-.6.9-1.4 1.2-3.1 1.2h-2.1v7.9H191V26.4zm4.7 11.6h.2c.6 0 .8-.3.8-.9v-6.8c0-.6-.3-.8-.9-.8h-.6V38h.5z"/></svg>